<svg width="200" height="150" viewBox="0 0 200 150" fill="none" xmlns="http://www.w3.org/2000/svg">
<path d="M121.856 128.151C121.987 128.035 125.026 127.38 125.026 127.38L124.648 133.188L123.298 135.956L122.164 136.82C121.862 137.037 121.494 137.14 121.123 137.113C120.352 137.059 119.58 136.411 119.742 134.028C119.719 134.044 121.755 128.275 121.856 128.151Z" fill="#FF7212"/>
<path d="M155.776 89.0318C154.784 92.7291 153.494 96.3402 151.92 99.8296C148.557 107.172 143.027 114.869 136.101 119.196C128.553 123.982 120.021 127.001 111.143 128.027C101.263 129.084 88.8917 127.673 81.0633 121.14C74.4535 115.641 69.4942 107.172 68.3527 98.5879C67.1573 89.6951 71.5535 82.4991 79.2894 78.3574C85.5058 75.0101 92.0462 72.8428 97.7536 68.6162C109.415 59.8777 116.588 46.6735 128.057 37.7654C131.736 34.9194 136.04 32.5438 140.69 32.3664C146.274 32.1891 151.642 35.3667 154.967 39.8632C158.291 44.3597 159.779 49.9977 160.103 55.5817C160.743 66.5107 158.653 78.4577 155.776 88.9701" fill="#E8F2FF"/>
<path d="M140.203 75.3269C140.203 75.3269 144.314 52.3276 150.43 46.6279C156.546 40.9282 151.101 76.7075 151.101 76.7075L140.203 75.3269Z" fill="#BAD7FF"/>
<path d="M151.719 46.0264L146.42 76.7924" stroke="#4794FF" stroke-width="0.192818" stroke-miterlimit="10"/>
<path d="M141.738 82.8464L140.913 94.6006L136.733 93.2971L136.355 92.8112C136.3 91.207 135.914 89.6314 135.221 88.1836C133.508 84.2498 132.634 80.0025 132.653 75.7121V75.6196C132.822 71.6012 133.825 63.8268 138.823 57.3019C145.919 48.0543 141.738 82.8464 141.738 82.8464Z" fill="#BAD7FF"/>
<path d="M141.314 55.8525L136.316 90.3284" stroke="#4794FF" stroke-width="0.192818" stroke-miterlimit="10"/>
<path d="M100.16 99.4677L97.5684 111.037C94.9423 109.638 92.5145 107.895 90.3493 105.854C85.1124 100.794 77.2377 91.5313 81.9039 92.318C84.0558 92.6883 86.2847 94.6319 87.4956 95.8196C86.3079 93.1125 85.1818 89.3949 85.097 87.1505C84.7576 79.2064 90.4959 89.2407 91.8533 93.7603C91.8533 93.7603 92.694 81.9676 101.109 73.7844C109.523 65.6012 100.16 99.4677 100.16 99.4677Z" fill="#BAD7FF"/>
<path d="M85.5352 84.2969L97.5593 110.991" stroke="#4794FF" stroke-width="0.192818" stroke-miterlimit="10"/>
<path d="M94.7148 104.666L103.415 72.4805" stroke="#4794FF" stroke-width="0.192818" stroke-miterlimit="10"/>
<path d="M80.6699 92.4648L93.6041 102.198" stroke="#4794FF" stroke-width="0.192818" stroke-miterlimit="10"/>
<path d="M95.9551 80.5869L98.5851 90.3435" stroke="#4794FF" stroke-width="0.192818" stroke-miterlimit="10"/>
<path d="M154.187 92.6653C150.955 102.877 143.952 114.006 135.229 122.683C133.438 124.481 131.548 126.178 129.568 127.766C129.568 127.766 90.395 145.058 93.2178 110.659C93.9891 100.841 99.7968 89.6805 101.231 86.8345C102.45 84.405 104.71 83.3329 106.198 82.631C107.687 81.9292 109.283 81.1965 111.088 80.3172C116.487 77.9186 140.998 66.8894 144.199 65.5859L145.256 65.1771C152.922 62.3389 156.053 64.4059 157.187 65.9484C158.128 67.3444 160.789 71.8178 154.187 92.6653Z" fill="#FFB30F"/>
<path d="M95.9332 109.694C95.9026 109.176 95.9468 108.657 96.0644 108.152C96.3729 107.041 97.3061 106.208 97.9617 105.244C99.1803 103.424 99.4503 101.041 101.047 99.4981C101.275 99.2555 101.562 99.075 101.88 98.9736C101.875 99.6697 101.711 100.356 101.402 100.979C101.238 101.673 101.14 102.38 101.108 103.092C101.024 103.941 100.869 104.781 100.707 105.622C100.283 108.127 99.6906 110.601 98.9335 113.026C98.8742 113.311 98.7087 113.562 98.4707 113.728C98.0542 113.959 97.5375 113.659 97.1904 113.342C96.9306 113.108 96.6491 112.899 96.3497 112.718C96.0798 112.548 96.0798 112.425 96.0644 112.116C95.995 111.291 95.9487 110.489 95.9332 109.694Z" fill="#FF9810"/>
<path d="M136.841 87.8131C135.45 88.8578 134.159 90.0301 132.985 91.3147C129.792 94.2842 125.945 96.4612 121.755 97.67C118.022 98.7806 113.834 99.4054 111.189 102.151C109.091 104.334 108.281 107.342 106.276 109.609C104.271 111.877 102.049 114.052 102.242 117.145C102.247 117.581 102.373 118.008 102.605 118.379C103.056 118.877 103.662 119.209 104.325 119.32C107.651 120.143 111.063 120.573 114.49 120.6C117.66 120.7 120.845 120.808 123.907 119.898C126.524 119.019 128.978 117.717 131.173 116.042C135.48 113.012 139.328 109.375 142.595 105.244C144.863 102.305 146.559 98.5878 146.066 94.8549C145.719 92.2325 144.739 88.1988 141.893 87.0187C140.266 86.3554 138.315 86.8491 136.841 87.8131Z" fill="#FF9810"/>
<path d="M129.091 127.828C120.406 134.769 110.626 139.011 101.386 137.792C80.1071 134.946 62.4912 114.593 54.7322 98.1876C48.248 84.7936 44.4661 70.2534 43.6028 55.3974C43.248 50.1605 43.1477 45.6563 43.1323 42.8257C43.1375 39.7096 42.5783 36.6183 41.4818 33.7016C41.4384 33.5573 41.3869 33.4157 41.3275 33.2774C41.0266 32.5236 40.6736 31.7916 40.2709 31.0869C40.1643 30.9136 40.0886 30.7231 40.0472 30.5239C39.9873 30.2556 39.9896 29.9771 40.0537 29.7098C40.1179 29.4425 40.2423 29.1933 40.4174 28.9814C41.3584 27.8399 43.086 26.575 45.4461 28.0636C49.1096 30.3774 50.5674 38.1672 50.5365 43.327C50.5365 43.327 52.8503 37.0797 46.1094 18.8006C45.9089 18.2453 45.5464 16.5408 46.6339 15.6384C47.3595 14.9737 48.278 14.5577 49.2562 14.4506C49.7887 14.3746 50.3318 14.4459 50.8267 14.6566C51.3216 14.8673 51.7494 15.2095 52.0636 15.6461C52.3027 16.0394 52.7038 16.803 53.2051 17.8673C52.2333 15.6384 52.2256 15.0368 52.511 14.1961C52.8889 13.0855 53.9995 12.2062 55.704 11.8823C56.8224 11.6586 60.9872 12.0597 63.9104 21.1375C65.1031 24.7079 65.9578 28.3825 66.4633 32.1127C67.1651 29.2205 69.0007 26.9529 71.5922 25.0633C74.1837 23.1737 78.2329 22.896 80.2073 24.6005C81.7499 25.9348 84.0637 28.2255 85.9919 30.1614L86.0767 30.2463L88.1129 32.3673C88.2286 32.4857 88.3296 32.6178 88.4137 32.7606C88.5207 32.9282 88.6038 33.1099 88.6605 33.3005C88.7819 33.6805 88.7979 34.0864 88.7069 34.4748C88.6159 34.8633 88.4213 35.2198 88.1437 35.5063C87.5233 36.1267 86.8104 36.6471 86.0304 37.0489C83.7166 38.3061 80.5853 35.3752 79.0427 34.2183C75.8496 31.8197 72.8263 34.118 72.0164 39.5478C71.2066 44.9776 72.8494 49.1964 76.5284 49.5743C80.2073 49.9523 82.6985 41.4914 83.4698 38.8999C83.9017 37.4037 85.6448 37.0412 87.0562 36.9949C87.535 36.9737 88.0058 37.1234 88.3844 37.4173C88.7631 37.7112 89.0249 38.13 89.1232 38.5991C89.1275 38.6788 89.1275 38.7586 89.1232 38.8382C89.2008 39.9012 89.2008 40.9684 89.1232 42.0313V42.147C88.7082 46.625 87.651 51.02 85.9842 55.1969C84.1914 59.2598 81.7187 62.987 78.6725 66.2184C79.0196 71.5633 80.9863 80.5255 84.4339 89.3565C87.8815 98.1876 92.8099 107.026 99.1575 111.986C105.505 116.945 114.737 116.613 121.069 111.909C122.396 110.921 123.668 109.888 124.926 108.823C124.903 108.816 132.361 113.289 129.091 127.828Z" fill="#FFD1C8"/>
<path d="M40 30.979C40 30.5008 40.5399 30.146 40.9872 29.9223C41.1994 29.8153 41.4444 29.7932 41.6722 29.8605C41.9001 29.9279 42.0937 30.0797 42.2136 30.2848C42.4796 30.7563 42.6253 31.2862 42.6378 31.8274C42.6427 32.2822 42.5355 32.7313 42.3256 33.1348C42.1158 33.5384 41.8097 33.884 41.4346 34.1412" stroke="#AB364A" stroke-width="0.250663" stroke-miterlimit="10"/>
<path d="M53.7826 15.2294C53.9214 15.6728 54.0915 16.1059 54.2916 16.5252C54.3863 16.7344 54.5525 16.9029 54.7603 17.0004C54.9682 17.098 55.204 17.1182 55.4254 17.0574C56.404 16.7454 57.2787 16.172 57.9552 15.3991C58.0864 15.2269 58.1541 15.0147 58.1471 14.7984C58.1401 14.582 58.0587 14.3747 57.9166 14.2114C57.6851 13.911 57.427 13.6322 57.1453 13.3784C57.0502 13.2792 56.9349 13.2017 56.8071 13.1511C56.6793 13.1005 56.5421 13.0781 56.4049 13.0853C55.9174 13.0977 55.4386 13.2175 55.0027 13.4362C54.5667 13.6548 54.1844 13.9669 53.8829 14.3502C53.7966 14.4778 53.7424 14.6244 53.7249 14.7775C53.7075 14.9306 53.7272 15.0856 53.7826 15.2294V15.2294Z" stroke="#AB364A" stroke-width="0.250663" stroke-miterlimit="10"/>
<path d="M46.6937 17.628C46.788 18.082 46.9169 18.5281 47.0793 18.9623C47.1549 19.1831 47.3066 19.3696 47.5074 19.4883C47.7082 19.6071 47.9448 19.6503 48.1746 19.6102C49.1993 19.4044 50.1501 18.9277 50.928 18.2296C51.079 18.0745 51.1704 17.871 51.1859 17.6551C51.2014 17.4392 51.1401 17.2247 51.0128 17.0496C50.7988 16.7369 50.5588 16.4428 50.2955 16.1703C50.2091 16.0663 50.1022 15.9811 49.9815 15.92C49.8607 15.859 49.7287 15.8234 49.5937 15.8156C49.1097 15.7789 48.6233 15.8444 48.1663 16.0078C47.7092 16.1713 47.2916 16.429 46.9405 16.7642C46.8312 16.8766 46.7514 17.0143 46.7084 17.1651C46.6653 17.3158 46.6603 17.4749 46.6937 17.628V17.628Z" stroke="#AB364A" stroke-width="0.250663" stroke-miterlimit="10"/>
<path d="M88.4516 33.3776C88.1612 33.7986 87.7497 34.1214 87.2716 34.3031C87.1023 34.3786 86.9153 34.4053 86.7317 34.3802C85.9604 34.28 83.9628 33.8943 84.1556 32.4443C84.2226 31.9744 84.4137 31.5308 84.7092 31.1593C85.0048 30.7878 85.3941 30.5019 85.837 30.3311" stroke="#AB364A" stroke-width="0.250663" stroke-linecap="round" stroke-linejoin="round"/>
<path d="M88.8994 42.2397C88.5723 42.3273 88.2305 42.3458 87.8959 42.294C87.5613 42.2422 87.2411 42.1213 86.9558 41.9389C86.0303 41.3681 86.4468 40.2498 86.8324 39.5634C86.9489 39.3476 87.1093 39.1586 87.3033 39.0085C87.4972 38.8584 87.7204 38.7505 87.9584 38.6918C88.2621 38.6144 88.5803 38.6144 88.884 38.6918" stroke="#AB364A" stroke-width="0.250663" stroke-linecap="round" stroke-linejoin="round"/>
<path d="M52.9727 17.9365C56.1615 24.5311 58.2186 31.6151 59.058 38.892" stroke="#AB364A" stroke-width="0.250663" stroke-linecap="round" stroke-linejoin="round"/>
<path d="M66.0382 36.1076C66.0382 36.1076 65.6603 34.9121 66.2233 32.1973" stroke="#AB364A" stroke-width="0.250663" stroke-linecap="round" stroke-linejoin="round"/>
<path d="M129.807 75.8278C127.747 79.4142 119.24 85.7155 114.25 84.8131C109.26 83.9107 110.394 80.6174 110.394 80.6174C110.787 80.4246 111.551 80.0544 112.391 79.6841C113.376 79.3264 114.308 78.836 115.16 78.2264C115.885 77.2701 116.232 75.1876 116.371 72.9818C116.371 72.5807 116.418 72.172 116.425 71.7632V71.5549C116.425 70.8454 116.425 70.1435 116.425 69.4879C116.425 68.6395 116.425 67.8605 116.364 67.2358C116.364 66.2563 116.286 65.6239 116.286 65.6239C116.65 63.8442 117.198 62.1073 117.921 60.4409C118.253 59.6944 118.642 58.9749 119.086 58.2891C119.639 57.3897 120.359 56.6043 121.207 55.9752C124.408 53.6614 125.626 54.1242 125.835 55.2811C125.851 55.4349 125.851 55.59 125.835 55.7439C125.828 55.8646 125.828 55.9856 125.835 56.1064C125.835 56.4072 125.835 56.8776 125.835 57.4561C125.835 60.9885 126.382 68.9018 130.755 71.3853C130.755 71.3853 131.82 72.1951 129.737 75.7969" fill="#FFD1C8"/>
<path d="M124.608 54.9424C123.729 54.9424 122.371 55.5363 120.374 57.1251C119.929 57.4761 119.52 57.8715 119.155 58.3051C118.712 58.991 118.322 59.7105 117.991 60.457C117.267 62.1233 116.72 63.8603 116.355 65.6399C116.355 65.6399 116.402 66.2724 116.433 67.2519C116.433 67.8766 116.487 68.6556 116.494 69.504V69.9436C116.494 70.4681 116.494 71.0157 116.494 71.571V71.7792C116.494 72.188 116.494 72.5968 116.44 72.9979C119.525 70.846 125.58 65.5628 125.919 57.2639C125.919 56.8551 125.919 56.4464 125.919 56.0222C125.919 55.945 125.919 55.8679 125.858 55.8062C125.781 55.5474 125.619 55.3223 125.397 55.1681C125.176 55.0139 124.908 54.9397 124.639 54.9578" fill="#FFAB9D"/>
<path d="M103.244 42.6249C103.295 47.6017 103.679 52.5695 104.393 57.4951C104.916 61.2923 106.096 64.9696 107.879 68.3623C109.175 70.6067 110.27 70.5373 111.898 70.1131C114.479 69.4451 116.905 68.2792 119.04 66.6809C123.868 63.0328 125.688 58.76 125.866 55.5977C126.169 49.9441 126.117 44.277 125.711 38.6298C125.272 34.2181 103.244 42.6249 103.244 42.6249Z" fill="#FFD1C8"/>
<path d="M111.018 52.042L109.854 57.8497L111.527 58.2816" stroke="#AB364A" stroke-width="0.250663" stroke-linecap="round" stroke-linejoin="round"/>
<path d="M125.935 51.0395C125.935 51.0395 126.259 46.4118 128.303 46.4812C130.347 46.5507 131.025 49.7591 130.285 52.7285C129.467 56.0373 126.729 57.8575 125.441 57.1017" fill="#FFD1C8"/>
<path d="M128.457 46.4889C126.822 46.728 126.313 48.9261 126.143 50.1293C126.1 50.2863 126.025 50.4326 125.922 50.5585C125.819 50.6844 125.69 50.7871 125.544 50.8599C125.399 50.9327 125.24 50.9739 125.077 50.9809C124.914 50.9879 124.752 50.9606 124.601 50.9006C123.999 50.6769 124.099 49.8671 124.238 48.5868C124.678 44.5761 123.637 42.9719 123.637 42.9719C122.193 43.9817 120.589 44.7405 118.893 45.2163C116.294 45.7639 117.227 43.2573 117.227 43.2573C115.954 44.254 114.526 45.0356 113.001 45.5711C111.188 46.0184 110.479 45.0698 111.265 43.5581C111.265 43.5581 109.036 46.2267 100.537 44.445C99.0871 44.1442 96.1408 43.5658 95.5701 41.8767C95.169 40.5424 96.9583 40.0796 97.8453 40.0333C98.6214 39.9888 99.4 40.051 100.159 40.2185C99.4804 40.0719 98.6166 39.1233 98.1075 38.6759C96.5668 37.1998 95.5648 35.2502 95.2615 33.1382C95.0379 31.4568 95.1767 28.5568 97.2977 28.1403C99.5575 27.7007 102.967 31.6728 104.185 32.2358C104.185 32.2358 102.249 29.7831 103.206 28.6262C103.63 28.1249 104.424 28.58 104.864 28.8191C105.782 29.3127 106.676 29.9066 107.556 30.4619C111.088 32.6986 115.268 31.2331 119.125 31.6728C120.863 31.8599 122.545 32.3978 124.069 33.2539C125.534 34.0868 127.154 35.2746 127.925 36.8403C129.298 39.7326 128.457 46.4889 128.457 46.4889Z" fill="#005DE0"/>
<path d="M117.69 59.2996C117.69 59.5464 117.636 59.8318 117.582 60.1557C117.48 60.7027 117.339 61.2414 117.158 61.7677L117.104 61.8911C117.078 61.9983 117.04 62.1019 116.989 62.1996C116.866 62.5089 116.724 62.8103 116.564 63.102C116.208 63.768 115.715 64.3517 115.118 64.8154C114.522 65.279 113.835 65.6123 113.101 65.7937C112.665 65.9288 112.2 65.9494 111.753 65.8535C111.306 65.7576 110.891 65.5484 110.548 65.2461C110.464 65.1613 110.371 65.0919 110.294 64.9993L110.186 64.8682L110.032 64.6754C109.486 63.8687 109.106 62.9616 108.913 62.0068C108.849 61.7525 108.797 61.495 108.759 61.2355C108.741 61.1072 108.772 60.9767 108.846 60.8707C108.921 60.7646 109.033 60.691 109.16 60.6648L117.035 58.7983C117.112 58.7768 117.193 58.7735 117.271 58.7886C117.35 58.8038 117.424 58.837 117.488 58.8856C117.551 58.9342 117.602 58.9969 117.638 59.0687C117.673 59.1406 117.691 59.2196 117.69 59.2996Z" fill="#AB364A"/>
<path d="M107.348 52.2274C107.394 52.8521 107.163 53.3766 106.831 53.392C106.499 53.4074 106.183 52.9215 106.137 52.2968C106.09 51.6721 106.322 51.1476 106.654 51.1322C106.985 51.1168 107.301 51.6027 107.348 52.2274Z" fill="#001E42"/>
<path d="M93.4883 12.6069L96.7508 10L100.823 15.9157L97.5683 18.1678L93.4883 12.6069Z" fill="#FFB920"/>
<path d="M135.73 14.1188L137.782 16.4326C138.868 14.773 140.445 13.4947 142.294 12.7768L142.556 12.6765L140.374 10.3164L140.266 10.3627C138.405 11.1032 136.825 12.4089 135.746 14.0956L135.73 14.1188Z" fill="#18A43B"/>
<path d="M108.705 81.5121V81.6586C108.886 82.6325 109.339 83.5354 110.01 84.2639C110.681 84.9924 111.544 85.5169 112.5 85.7772C114.42 86.2697 116.439 86.2163 118.331 85.623C123.25 84.2763 127.557 81.2813 130.532 77.139C131.297 76.0975 131.973 74.9932 132.553 73.8379C133.17 72.5962 135.414 70.6371 135.784 69.3105L130.679 71.447C128.079 76.0746 124.37 80.0775 119.356 82.1214C117.513 82.8926 115.299 83.6639 113.302 83.0392C112.717 82.8261 112.184 82.491 111.739 82.0562C111.293 81.6213 110.945 81.0967 110.718 80.5171L108.882 81.3424L108.721 81.4735L108.705 81.5121Z" fill="#FFB30F"/>
<path d="M158.461 73.5447C158.461 73.5447 158.337 81.4657 154.882 92.4177C154.704 92.9962 154.504 93.5824 154.303 94.1762C152.117 100.679 149.155 106.894 145.48 112.687C142.929 116.718 140.028 120.517 136.811 124.04C132.417 128.859 127.482 133.155 122.103 136.843C122.382 136.567 122.586 136.225 122.697 135.848C125.735 121.672 119.326 113.157 119.326 113.157C130.54 105.892 139.449 92.464 141.986 87.2039C141.986 87.2039 159.239 63.3485 158.461 73.5447Z" fill="#FFB30F"/>
<path d="M115.037 49.5818L118.901 47.8311" stroke="#AB364A" stroke-width="0.250663" stroke-linecap="round" stroke-linejoin="round"/>
<path d="M107.663 50.0834L105.342 49.2041" stroke="#AB364A" stroke-width="0.250663" stroke-linecap="round" stroke-linejoin="round"/>
<path d="M120.174 17.8516L115.477 21.1526L120.675 22.9651L120.174 17.8516Z" fill="#005DE0"/>
<path d="M116.563 63.1023C116.207 63.7684 115.714 64.3521 115.118 64.8157C114.521 65.2794 113.834 65.6127 113.1 65.7941C112.664 65.9291 112.199 65.9497 111.752 65.8538C111.305 65.7579 110.89 65.5488 110.547 65.2465C110.463 65.1616 110.37 65.0922 110.293 64.9997C110.881 64.2906 111.64 63.7436 112.499 63.4109C113.817 63.0255 115.202 62.9204 116.563 63.1023Z" fill="#FF866D"/>
<path d="M108.689 55.5047C108.689 56.006 107.547 56.4302 106.121 56.4534C104.694 56.4765 103.521 56.1063 103.514 55.6127C103.506 55.1191 104.655 54.6949 106.082 54.664C107.509 54.6332 108.681 54.9802 108.689 55.5047Z" fill="#FF866D"/>
<path d="M120.575 53.9627C120.66 54.4486 119.596 55.0579 118.185 55.3124C116.773 55.5669 115.562 55.3818 115.477 54.8959C115.393 54.41 116.457 53.8084 117.861 53.5539C119.264 53.2994 120.483 53.4691 120.575 53.9627Z" fill="#FF866D"/>
<path d="M102.511 96.7686L99.1562 111.986" stroke="#AB364A" stroke-width="0.250663" stroke-linecap="round" stroke-linejoin="round"/>
<path d="M142.139 87.127C139.602 92.387 131.789 103.941 121.099 111.908C114.767 116.62 105.427 116.867 99.1871 112.008C97.213 110.437 95.4295 108.641 93.873 106.656" stroke="#AB364A" stroke-width="0.250663" stroke-linecap="round" stroke-linejoin="round"/>
<path d="M108.967 81.3195C108.967 81.9133 109.784 82.862 110.162 83.2322C110.717 83.8078 111.387 84.2599 112.129 84.5588C113.784 85.1134 115.563 85.1856 117.258 84.767C122.259 83.7468 126.742 81.0002 129.922 77.008C130.987 75.6943 131.903 74.2665 132.653 72.7506C133.06 71.9278 133.415 71.0803 133.717 70.2131V70.082" stroke="#AB364A" stroke-width="0.250663" stroke-linecap="round" stroke-linejoin="round"/>
<path d="M129.098 49.335C129.098 49.335 126.537 50.515 126.853 54.2557" stroke="#AB364A" stroke-width="0.250663" stroke-linecap="round" stroke-linejoin="round"/>
<path d="M115.623 103.918C115.623 103.918 127.377 102.915 135.977 91.4385" stroke="#AB364A" stroke-width="0.250663" stroke-linecap="round" stroke-linejoin="round"/>
<path d="M105.019 134.453C105.491 134.606 105.995 134.638 106.484 134.545C106.632 134.511 106.769 134.436 106.877 134.329C106.916 134.287 106.946 134.238 106.965 134.183C106.984 134.129 106.992 134.072 106.987 134.015C106.983 133.957 106.967 133.902 106.94 133.851C106.913 133.8 106.876 133.756 106.831 133.72C106.541 133.482 106.201 133.313 105.836 133.226C105.114 133.026 104.363 132.948 103.615 132.995C102.419 133.057 100.977 133.936 101.71 135.062C102.442 136.188 104.54 136.342 105.882 136.389C106.814 136.444 107.746 136.315 108.628 136.011C109.469 135.679 110.309 134.969 110.333 134.144C110.356 133.319 109.415 132.671 108.643 132.316C107.446 131.815 106.162 131.553 104.864 131.545C101.37 131.445 99.2571 132.617 99.2031 134.507" stroke="#AB364A" stroke-width="0.250663" stroke-linecap="round" stroke-linejoin="round"/>
<path d="M74.0664 68.2237C76.0161 68.0414 77.8136 67.0927 79.0642 65.5859" stroke="#AB364A" stroke-width="0.250663" stroke-linecap="round" stroke-linejoin="round"/>
<path d="M84.3242 37.6271C85.1417 37.2053 86.0601 37.0184 86.9774 37.0872" stroke="#AB364A" stroke-width="0.250663" stroke-linecap="round" stroke-linejoin="round"/>
<path d="M146.506 52.9209L149.244 60.4254" stroke="#4794FF" stroke-width="0.192818" stroke-miterlimit="10"/>
<path d="M117.66 51.5559C117.706 52.1884 117.475 52.7051 117.143 52.7283C116.811 52.7514 116.495 52.2578 116.441 51.6331C116.387 51.0083 116.626 50.4839 116.966 50.4607C117.305 50.4376 117.606 50.9312 117.66 51.5559Z" fill="#001E42"/>
<path d="M77.7545 16.7559L77.6465 20.8359" stroke="#005DE0" stroke-width="0.45505" stroke-linecap="round" stroke-linejoin="round"/>
<path d="M84.5633 18.8154L81.9102 22.155" stroke="#005DE0" stroke-width="0.45505" stroke-linecap="round" stroke-linejoin="round"/>
<path d="M88.2969 24.3223L84.2246 25.0318" stroke="#005DE0" stroke-width="0.45505" stroke-linecap="round" stroke-linejoin="round"/>
</svg>
