<svg width="24" height="24" viewBox="0 0 24 24" fill="none" xmlns="http://www.w3.org/2000/svg">
<path d="M1.33664 13.6296L4.22049 12.4964C4.48622 12.3925 4.77943 12.5408 4.87558 12.8277L5.05065 13.3462L8.39104 12.0337C8.47496 12 8.56587 11.9913 8.65403 12.0088L15.606 13.3341C16.2359 13.4554 16.7771 13.8871 17.0696 14.5016L20.2581 13.243C20.7676 13.041 21.331 13.068 21.8223 13.3177C22.4452 13.6321 22.8807 14.2625 22.9826 14.9969C23.11 16.0604 22.5266 17.0739 21.5868 17.4215L11.0836 21.5488C11.0276 21.5712 10.9682 21.5825 10.9085 21.5825C10.8528 21.5825 10.7976 21.5725 10.7449 21.5534L7.81213 20.4843L7.50019 20.6067L7.67501 21.1258C7.77117 21.4127 7.6338 21.7295 7.36807 21.8333L4.48372 22.9663C4.42803 22.9887 4.36884 23.0003 4.3094 23C4.23472 23.0003 4.1608 22.9825 4.09312 22.9482C3.97024 22.8862 3.87509 22.7743 3.82863 22.6368L1.0297 14.3336C0.935542 14.0478 1.07265 13.7334 1.33664 13.6296ZM7.63106 19.3815C7.7402 19.3386 7.85958 19.3373 7.96972 19.3774L10.902 20.4465L21.2371 16.385C21.7154 16.2133 22.0203 15.7074 21.9721 15.1657C21.9232 14.7955 21.7039 14.4771 21.3895 14.3199C21.1442 14.1948 20.8625 14.181 20.608 14.2824L17.2878 15.5866C17.2866 15.6883 17.2796 15.7897 17.2664 15.8903C17.0656 17.088 16.0089 17.8874 14.8977 17.6822L9.13929 16.5862L9.31736 15.4982L15.0731 16.5945C15.628 16.7005 16.1577 16.3023 16.2581 15.7037C16.2801 15.5586 16.2766 15.4106 16.2474 15.2669C16.2401 15.2194 16.2284 15.173 16.2122 15.1283C16.0868 14.7575 15.7881 14.4865 15.4282 14.417L8.61257 13.1192L5.4003 14.3811L7.14979 19.5719L7.63106 19.3815ZM4.61334 21.7416L6.53641 20.9861L4.08687 13.7213L2.16431 14.4766L4.61334 21.7416Z" fill="#004EBC"/>
<circle cx="14.5" cy="6.5" r="4.75" stroke="#004EBC" stroke-width="1.5"/>
<path d="M15.1216 7.42797C15.1216 7.28426 15.075 7.17035 14.9818 7.08623C14.8906 7.00035 14.7345 6.92149 14.5137 6.84963C14.2928 6.77778 14.1023 6.7068 13.9422 6.6367C13.7822 6.56484 13.6444 6.48335 13.5289 6.39222C13.4154 6.29933 13.3262 6.19068 13.2614 6.06625C13.1986 5.94182 13.1672 5.79373 13.1672 5.62198C13.1672 5.3258 13.2766 5.08307 13.4954 4.8938C13.7143 4.70452 14.0051 4.59411 14.3678 4.56257V4H14.8541V4.57045C15.2128 4.61427 15.4934 4.74395 15.696 4.95952C15.8987 5.17333 16 5.4511 16 5.79285H15.1216C15.1216 5.58254 15.0709 5.42569 14.9696 5.32229C14.8703 5.21714 14.7366 5.16456 14.5684 5.16456C14.4022 5.16456 14.2736 5.20575 14.1824 5.28812C14.0912 5.36873 14.0456 5.4809 14.0456 5.62461C14.0456 5.7578 14.0902 5.8647 14.1793 5.94532C14.2685 6.02594 14.4336 6.10831 14.6748 6.19243C14.9179 6.27655 15.1175 6.35629 15.2736 6.43165C15.4296 6.50526 15.5613 6.58938 15.6687 6.68402C15.7761 6.7769 15.8582 6.88381 15.9149 7.00473C15.9716 7.1239 16 7.26323 16 7.42271C16 7.72064 15.8926 7.9625 15.6778 8.14826C15.463 8.33403 15.1672 8.44357 14.7903 8.47687V9H14.307V8.4795C13.8916 8.44094 13.5694 8.31388 13.3404 8.09832C13.1135 7.881 13 7.59271 13 7.23344H13.8784C13.8784 7.44199 13.9352 7.60235 14.0486 7.71451C14.1641 7.82492 14.3293 7.88013 14.5441 7.88013C14.7224 7.88013 14.8632 7.83982 14.9666 7.7592C15.0699 7.67683 15.1216 7.56642 15.1216 7.42797Z" fill="#004EBC"/>
</svg>
