<svg width="12" height="5" viewBox="0 0 12 5" fill="none" xmlns="http://www.w3.org/2000/svg">
<path d="M2.27055 3.16426C2.27055 2.99399 2.21133 2.86232 2.09289 2.76924C1.97652 2.67389 1.77184 2.59217 1.47885 2.52406C1.18794 2.45595 0.956248 2.37422 0.783778 2.27888C0.613386 2.18353 0.486631 2.07001 0.403513 1.93834C0.322472 1.80667 0.281952 1.65002 0.281952 1.46841C0.281952 1.16647 0.398318 0.911067 0.631048 0.702207C0.865857 0.493346 1.16508 0.388916 1.52872 0.388916C1.91107 0.388916 2.22068 0.496752 2.45757 0.712423C2.69653 0.928094 2.81602 1.20393 2.81602 1.53992H2.23627C2.23627 1.36738 2.16873 1.21868 2.03367 1.09382C1.90068 0.968958 1.73236 0.906526 1.52872 0.906526C1.31885 0.906526 1.15469 0.956471 1.03625 1.05636C0.917806 1.15625 0.858584 1.28679 0.858584 1.44797C0.858584 1.60008 0.91365 1.71473 1.02378 1.79191C1.13391 1.8691 1.33236 1.94288 1.61911 2.01326C1.90795 2.08364 2.14172 2.16763 2.32042 2.26525C2.49913 2.36287 2.63108 2.48092 2.71627 2.61941C2.80355 2.75562 2.84718 2.92248 2.84718 3.11999C2.84718 3.44917 2.72666 3.71365 2.48562 3.91343C2.24458 4.11094 1.93185 4.2097 1.54743 4.2097C1.27729 4.2097 1.03833 4.15748 0.830532 4.05305C0.622737 3.94862 0.459617 3.80333 0.341174 3.61717C0.224809 3.42874 0.166626 3.22556 0.166626 3.00762H0.743258C0.753648 3.21875 0.830532 3.38674 0.973911 3.51161C1.11937 3.6342 1.31054 3.69549 1.54743 3.69549C1.76561 3.69549 1.94016 3.64782 2.07107 3.55247C2.20406 3.45485 2.27055 3.32545 2.27055 3.16426Z" fill="#677072"/>
<path d="M4.18002 0.457023L4.1956 0.865662C4.44288 0.547832 4.77639 0.388916 5.19614 0.388916C5.66783 0.388916 5.98887 0.586425 6.15927 0.981444C6.27148 0.804366 6.41693 0.661343 6.59564 0.552372C6.77642 0.443401 6.98941 0.388916 7.23461 0.388916C7.97436 0.388916 8.35047 0.816853 8.36294 1.67273V4.14159H7.7863V1.71018C7.7863 1.44684 7.73124 1.25046 7.62111 1.12106C7.51097 0.98939 7.32604 0.923553 7.06629 0.923553C6.85226 0.923553 6.6746 0.99393 6.5333 1.13468C6.392 1.27317 6.30992 1.46046 6.28706 1.69656V4.14159H5.70731V1.72721C5.70731 1.19144 5.46731 0.923553 4.9873 0.923553C4.60911 0.923553 4.35041 1.0995 4.21119 1.45138V4.14159H3.63455V0.457023H4.18002Z" fill="#677072"/>
<path d="M11.2567 3.23237C11.2567 3.0621 11.1974 2.93043 11.079 2.83735C10.9626 2.742 10.758 2.66027 10.465 2.59217C10.174 2.52406 9.94235 2.44233 9.76988 2.34698C9.59949 2.25163 9.47274 2.13812 9.38962 2.00645C9.30858 1.87478 9.26806 1.71813 9.26806 1.53651C9.26806 1.23457 9.38442 0.979174 9.61716 0.770313C9.85196 0.561453 10.1512 0.457023 10.5148 0.457023C10.8972 0.457023 11.2068 0.564858 11.4437 0.780529C11.6826 0.9962 11.8021 1.27203 11.8021 1.60802H11.2224C11.2224 1.43549 11.1548 1.28679 11.0198 1.16193C10.8868 1.03706 10.7185 0.974633 10.5148 0.974633C10.305 0.974633 10.1408 1.02458 10.0224 1.12447C9.90391 1.22436 9.84469 1.3549 9.84469 1.51608C9.84469 1.66819 9.89976 1.78283 10.0099 1.86002C10.12 1.93721 10.3185 2.01099 10.6052 2.08137C10.8941 2.15174 11.1278 2.23574 11.3065 2.33336C11.4852 2.43098 11.6172 2.54903 11.7024 2.68752C11.7897 2.82373 11.8333 2.99059 11.8333 3.1881C11.8333 3.51728 11.7128 3.78176 11.4717 3.98154C11.2307 4.17905 10.918 4.27781 10.5335 4.27781C10.2634 4.27781 10.0244 4.22559 9.81664 4.12116C9.60884 4.01673 9.44572 3.87144 9.32728 3.68528C9.21092 3.49685 9.15273 3.29366 9.15273 3.07572H9.72936C9.73975 3.28685 9.81664 3.45485 9.96002 3.57971C10.1055 3.7023 10.2966 3.7636 10.5335 3.7636C10.7517 3.7636 10.9263 3.71593 11.0572 3.62058C11.1902 3.52296 11.2567 3.39355 11.2567 3.23237Z" fill="#677072"/>
</svg>
