<svg width="20" height="20" viewBox="0 0 20 20" fill="none" xmlns="http://www.w3.org/2000/svg">
<path fill-rule="evenodd" clip-rule="evenodd" d="M13.0385 3.33325C13.0036 3.25019 12.9657 3.16671 12.9251 3.08325C12.3761 1.95565 11.3151 0.833252 10 0.833252C8.6849 0.833252 7.69805 1.95565 7.14688 3.08325C7.10608 3.16671 7.06768 3.25019 7.0317 3.33325H4.16667C3.24619 3.33325 2.5 4.07944 2.5 4.99992C2.5 5.92039 3.24619 6.66658 4.16667 6.66658H15.8333C16.7538 6.66658 17.5 5.92039 17.5 4.99992C17.5 4.07944 16.7538 3.33325 15.8333 3.33325H13.0385ZM11.1656 3.08325H8.89379C9.32051 2.51365 9.71289 2.33325 10 2.33325C10.3039 2.33325 10.731 2.53199 11.1656 3.08325Z" fill="#677072"/>
<path fill-rule="evenodd" clip-rule="evenodd" d="M15.8327 7.5H4.16602V16.1667C4.16602 17.8235 5.50916 19.1667 7.16602 19.1667H12.8327C14.4895 19.1667 15.8327 17.8235 15.8327 16.1667V7.5ZM13.2493 10C13.2493 9.58579 12.9136 9.25 12.4993 9.25C12.0851 9.25 11.7493 9.58579 11.7493 10V15.8333C11.7493 16.2475 12.0851 16.5833 12.4993 16.5833C12.9136 16.5833 13.2493 16.2475 13.2493 15.8333V10ZM10.7493 10C10.7493 9.58579 10.4136 9.25 9.99935 9.25C9.58514 9.25 9.24935 9.58579 9.24935 10V15.8333C9.24935 16.2475 9.58514 16.5833 9.99935 16.5833C10.4136 16.5833 10.7493 16.2475 10.7493 15.8333V10ZM8.24935 10C8.24935 9.58579 7.91356 9.25 7.49935 9.25C7.08514 9.25 6.74935 9.58579 6.74935 10V15.8333C6.74935 16.2475 7.08514 16.5833 7.49935 16.5833C7.91356 16.5833 8.24935 16.2475 8.24935 15.8333V10Z" fill="#677072"/>
</svg>
