<svg width="24" height="24" viewBox="0 0 24 24" fill="none" xmlns="http://www.w3.org/2000/svg">
<path d="M12.8839 2.94454L13.4013 2.42715L12.8839 2.94454L21.0555 11.1161C21.5436 11.6043 21.5436 12.3957 21.0555 12.8839L12.8839 21.0555C12.3957 21.5436 11.6043 21.5436 11.1161 21.0555L2.94454 12.8839L2.41421 13.4142L2.94454 12.8839C2.45639 12.3957 2.45639 11.6043 2.94454 11.1161L2.41421 10.5858L2.94454 11.1161L11.1161 2.94454L10.5858 2.41421L11.1161 2.94454C11.6043 2.45639 12.3957 2.45639 12.8839 2.94454Z" stroke="#677072" stroke-width="1.5"/>
<path d="M13.5 8.5C13.5 9.32843 12.8284 10 12 10C11.1716 10 10.5 9.32843 10.5 8.5C10.5 7.67157 11.1716 7 12 7C12.8284 7 13.5 7.67157 13.5 8.5Z" fill="#677072"/>
<path d="M13.5 15.5C13.5 16.3284 12.8284 17 12 17C11.1716 17 10.5 16.3284 10.5 15.5C10.5 14.6716 11.1716 14 12 14C12.8284 14 13.5 14.6716 13.5 15.5Z" fill="#677072"/>
<path d="M17.5 13C17.5 13.8284 16.8284 14.5 16 14.5C15.1716 14.5 14.5 13.8284 14.5 13C14.5 12.1716 15.1716 11.5 16 11.5C16.8284 11.5 17.5 12.1716 17.5 13Z" fill="#677072"/>
<path d="M9 5L12 8.5M15.5 12.5L12 8.5M12 8.5V15.5" stroke="#677072" stroke-width="1.5"/>
</svg>
