<svg width="24" height="24" viewBox="0 0 24 24" fill="none" xmlns="http://www.w3.org/2000/svg">
<path fill-rule="evenodd" clip-rule="evenodd" d="M20.2634 14C19.364 17.7294 16.0056 20.5 12 20.5C7.99449 20.5 4.63606 17.7294 3.73666 14H2.20007C3.12661 18.5645 7.16211 22 12 22C16.8379 22 20.8735 18.5645 21.8 14H20.2634ZM3.73666 10C4.63606 6.27063 7.99449 3.5 12 3.5C16.0056 3.5 19.364 6.27063 20.2634 10H21.8C20.8735 5.43552 16.8379 2 12 2C7.16211 2 3.12661 5.43552 2.20007 10H3.73666Z" fill="#FF5922"/>
<path d="M18.5 9L21 10.5L22.5 8" stroke="#FF5922" stroke-width="1.5" stroke-linecap="round" stroke-linejoin="round"/>
<path d="M5.5 15L3 13.5L1.5 16" stroke="#FF5922" stroke-width="1.5" stroke-linecap="round" stroke-linejoin="round"/>
<path d="M15.6867 11.0913L16.4334 11.3562C16.4685 11.5993 16.4872 11.8044 16.5 12.0112C16.4991 12.2006 16.4826 12.401 16.4479 12.6365L15.701 12.9015L15.4663 12.9848L15.3914 13.2223C15.3588 13.3255 15.3132 13.43 15.2581 13.5471L15.1575 13.7611L15.2591 13.9747L15.5983 14.6874C15.3428 15.0337 15.0349 15.3373 14.6886 15.5973L13.9773 15.2583L13.7694 15.1592L13.559 15.2528C13.4257 15.3121 13.3191 15.3591 13.2171 15.3931L12.9856 15.4703L12.9041 15.7004L12.6392 16.4479C12.3979 16.4835 12.1935 16.5 12 16.5C11.8065 16.5 11.6021 16.4835 11.3608 16.4479L11.0959 15.7004L11.0128 15.4657L10.7753 15.3906C10.6722 15.358 10.5678 15.3124 10.4508 15.2573L10.2366 15.1564L10.0227 15.2583L9.31101 15.5975C8.96509 15.3418 8.66172 15.0337 8.4019 14.6871L8.74089 13.9747L8.83969 13.7671L8.74636 13.5569C8.69463 13.4404 8.64865 13.3224 8.59785 13.1916L8.51488 12.9781L8.29899 12.9015L7.55225 12.6366C7.51637 12.3877 7.5 12.1894 7.5 11.9964C7.5 11.8047 7.51612 11.6072 7.54624 11.363L8.29183 11.0985L8.52652 11.0152L8.60146 10.7777C8.63404 10.6745 8.67965 10.57 8.7347 10.4529L8.83535 10.2389L8.73372 10.0253L8.3948 9.31306C8.65909 8.96287 8.96207 8.65992 9.30421 8.40271L10.0156 8.74169L10.2234 8.84075L10.4338 8.74717C10.5671 8.68791 10.6737 8.64095 10.7757 8.60692L11.0073 8.52968L11.0888 8.29959L11.3536 7.55206C11.8246 7.48261 12.1683 7.48273 12.6318 7.55193L12.8889 8.28994L12.9713 8.52667L13.2104 8.60221C13.3135 8.63479 13.4178 8.68041 13.5348 8.7355L13.7491 8.83642L13.9629 8.73452L14.6747 8.39537C15.0206 8.65103 15.324 8.95918 15.5838 9.30575L15.2448 10.0181L15.146 10.2258L15.2393 10.4359C15.2985 10.5693 15.3455 10.676 15.3795 10.7781L15.4566 11.0097L15.6867 11.0913Z" stroke="#FF5922"/>
<circle cx="12" cy="12" r="1.66667" fill="#FF5922"/>
</svg>
