<svg width="24" height="24" viewBox="0 0 24 24" fill="none" xmlns="http://www.w3.org/2000/svg">
<path fill-rule="evenodd" clip-rule="evenodd" d="M12 23C18.0751 23 23 18.0751 23 12C23 5.92487 18.0751 1 12 1C5.92487 1 1 5.92487 1 12C1 18.0751 5.92487 23 12 23ZM17.624 8.41603C17.8538 8.07138 17.7607 7.60573 17.416 7.37596C17.0714 7.1462 16.6057 7.23933 16.376 7.58397L10.9449 15.7306L7.58565 11.5315C7.32689 11.208 6.85493 11.1556 6.53148 11.4143C6.20803 11.6731 6.15559 12.1451 6.41435 12.4685L10.4143 17.4685C10.5638 17.6554 10.7935 17.7597 11.0325 17.7493C11.2716 17.7389 11.4913 17.6151 11.624 17.416L17.624 8.41603Z" fill="#148430"/>
</svg>
