<svg width="16" height="16" viewBox="0 0 16 16" fill="none" xmlns="http://www.w3.org/2000/svg">
<circle cx="8.00033" cy="7.99984" r="6.58333" stroke="#004EBC" stroke-width="1.5"/>
<path d="M10.2736 8.83551C10.033 8.59727 9.73333 8.59727 9.49266 8.83551C9.31092 9.01727 9.12673 9.19657 8.94745 9.38078C8.89833 9.43236 8.85658 9.44218 8.79519 9.4078C8.6773 9.34394 8.55205 9.29236 8.43663 9.22113C7.90861 8.88955 7.4641 8.45972 7.07116 7.97832C6.87714 7.73761 6.70277 7.48217 6.58243 7.19481C6.55788 7.13586 6.56033 7.09901 6.60945 7.05235C6.79118 6.87551 6.97046 6.69375 7.14974 6.51445C7.40024 6.26392 7.40024 5.96919 7.14729 5.71375C7.00485 5.57129 6.86241 5.42638 6.71996 5.28638C6.57261 5.13901 6.42771 4.99164 6.2779 4.84427C6.03723 4.60848 5.73761 4.60602 5.49693 4.84427C5.3152 5.02602 5.13592 5.21269 4.95173 5.38953C4.77982 5.5541 4.6914 5.7555 4.67176 5.99129C4.64474 6.37199 4.73561 6.73305 4.86823 7.08673C5.13837 7.81376 5.55096 8.45727 6.04705 9.05165C6.71996 9.85236 7.52549 10.486 8.4661 10.9429C8.88851 11.1492 9.32811 11.3064 9.80701 11.331C10.1361 11.3482 10.421 11.2671 10.6494 11.0117C10.8066 10.8373 10.9809 10.6776 11.1479 10.5106C11.3935 10.2625 11.396 9.96289 11.1528 9.71727C10.8581 9.41762 10.5659 9.1278 10.2736 8.83551Z" fill="#004EBC"/>
</svg>
