<svg width="184" height="69" viewBox="0 0 184 69" fill="none" xmlns="http://www.w3.org/2000/svg">
<path d="M103.5 18.7175V24.4318C103.5 25.2291 102.852 25.877 102.054 25.877H96.3056C95.508 25.877 94.8601 26.5248 94.8601 27.3222V56.0266C94.8601 56.8239 94.2121 57.4718 93.4145 57.4718H87.6325C86.835 57.4718 86.187 56.8239 86.187 56.0266V27.3056C86.187 26.5082 85.539 25.8604 84.7415 25.8604H79.0259C78.2284 25.8604 77.5804 25.2125 77.5804 24.4152V18.7009C77.5804 17.9035 78.2284 17.2557 79.0259 17.2557H102.021C102.852 17.2889 103.5 17.9368 103.5 18.7175Z" fill="#007864"/>
<path d="M126.495 33.1029V35.9767C126.495 36.774 125.847 37.4218 125.05 37.4218H119.301C118.504 37.4218 117.856 36.774 117.856 35.9767C117.856 35.1793 117.208 34.5315 116.41 34.5315H113.536C112.738 34.5315 112.09 35.1793 112.09 35.9767V56.0099C112.09 56.8073 111.442 57.4551 110.645 57.4551H104.896C104.098 57.4551 103.45 56.8073 103.45 56.0099V30.2291C103.45 29.4318 104.098 28.784 104.896 28.784H122.142C124.568 28.784 126.495 30.7109 126.495 33.1029Z" fill="#007864"/>
<path d="M184 30.2291V56.0099C184 56.8073 183.352 57.4551 182.554 57.4551H176.772C175.975 57.4551 175.327 56.8073 175.327 56.0099V30.2291C175.327 29.4318 175.975 28.784 176.772 28.784H182.554C183.369 28.784 184 29.4318 184 30.2291Z" fill="#007864"/>
<path d="M165.341 28.784H145.204C144.406 28.784 143.758 29.4318 143.758 30.2291V67.5548C143.758 68.3522 144.406 69 145.204 69H150.936C151.734 69 152.382 68.3522 152.382 67.5548V58.9335C152.382 58.1362 153.03 57.4883 153.827 57.4883H165.358C167.734 57.4883 169.678 55.5614 169.678 53.1694V33.1029C169.661 30.7109 167.734 28.784 165.341 28.784ZM161.038 50.2956C161.038 51.093 160.39 51.7408 159.592 51.7408H153.81C153.013 51.7408 152.365 51.093 152.365 50.2956V35.96C152.365 35.1627 153.013 34.5149 153.81 34.5149H159.592C160.39 34.5149 161.038 35.1627 161.038 35.96V50.2956Z" fill="#007864"/>
<path d="M138.026 30.2291V56.0099C138.026 56.8073 137.378 57.4551 136.581 57.4551H130.798C130.001 57.4551 129.353 56.8073 129.353 56.0099V30.2291C129.353 29.4318 130.001 28.784 130.798 28.784H136.581C137.378 28.784 138.026 29.4318 138.026 30.2291Z" fill="#007864"/>
<path d="M138.026 18.7168V21.5408C138.026 22.3381 137.378 22.9859 136.581 22.9859H130.798C130.001 22.9859 129.353 22.3381 129.353 21.5408V18.7168C129.353 17.9195 130.001 17.2716 130.798 17.2716H136.581C137.378 17.2883 138.026 17.9361 138.026 18.7168Z" fill="#007864"/>
<path d="M184 18.7168V21.5408C184 22.3381 183.352 22.9859 182.554 22.9859H176.772C175.975 22.9859 175.327 22.3381 175.327 21.5408V18.7168C175.327 17.9195 175.975 17.2716 176.772 17.2716H182.554C183.369 17.2883 184 17.9361 184 18.7168Z" fill="#007864"/>
<path d="M57.9913 15.3613C54.0867 11.956 49.3847 10.0955 44.6494 9.74666C48.0887 15.245 49.5176 21.9892 48.0721 28.75L48.0555 28.8165C48.0056 29.0656 47.9392 29.348 47.8561 29.6637C47.5902 30.6936 47.2746 31.6902 46.8924 32.6537C44.3669 39.4477 38.8009 48.6006 32.3874 56.5076C28.6324 61.1421 23.7144 66.4246 19.1785 68.9661C29.4798 68.0691 49.0191 58.6172 57.9913 50.7102C58.7057 50.0956 59.3869 49.4311 60.0349 48.7169C60.2343 48.5009 60.4337 48.285 60.5998 48.069C68.7911 38.4178 67.628 23.7666 57.9913 15.3613Z" fill="#77CABC"/>
<path d="M27.8848 0.594051C15.4402 -2.2631 3.19485 5.46117 0.553055 17.8532C0.50321 18.119 0.436749 18.4014 0.403519 18.7004C0.237368 19.6639 0.121063 20.6273 0.0878328 21.5908C-0.875841 36.5244 6.25202 66.2753 13.5294 67.9364C20.8234 69.6142 39.3991 45.7437 44.583 31.7735C44.9319 30.8931 45.2144 29.9961 45.447 29.0493C45.5134 28.7669 45.5965 28.4845 45.6464 28.2187C48.2881 15.8267 40.3461 3.4512 27.8848 0.594051ZM20.9896 51.4248C21.8868 51.9895 23.9138 51.8733 25.0437 51.3417C25.0437 51.3417 24.9107 53.0527 24.1963 54.5643C22.9169 57.3384 18.7299 59.5145 14.5263 58.0693C9.85749 56.4414 9.72457 50.8267 10.1898 48.1357C10.655 45.4281 14.8254 25.943 14.8254 25.943C15.7558 22.1057 18.2979 19.1988 22.5348 19.0825C23.7975 19.0825 24.9107 19.4978 26.0406 20.0625C26.0406 20.0625 20.7071 45.1955 20.2918 47.1556C20.0591 48.2686 19.6604 50.5776 20.9896 51.4248ZM23.0166 15.8765C20.2585 15.8765 18.0321 13.6506 18.0321 10.8931C18.0321 8.1356 20.2585 5.90968 23.0166 5.90968C25.7747 5.90968 28.0012 8.1356 28.0012 10.8931C28.0012 13.634 25.7747 15.8765 23.0166 15.8765Z" fill="#007864"/>
</svg>
