<svg width="24" height="24" viewBox="0 0 24 24" fill="none" xmlns="http://www.w3.org/2000/svg">
<rect x="1.75" y="8.75" width="17.5" height="9.5" rx="2.25" stroke="#004EBC" stroke-width="1.5"/>
<path d="M11.1216 14.6136C11.1216 14.4411 11.075 14.3044 10.9818 14.2035C10.8906 14.1004 10.7345 14.0058 10.5137 13.9196C10.2928 13.8333 10.1023 13.7482 9.94225 13.664C9.78217 13.5778 9.64438 13.48 9.52888 13.3707C9.4154 13.2592 9.32624 13.1288 9.2614 12.9795C9.19858 12.8302 9.16717 12.6525 9.16717 12.4464C9.16717 12.091 9.2766 11.7997 9.49544 11.5726C9.71429 11.3454 10.0051 11.2129 10.3678 11.1751V10.5H10.8541V11.1845C11.2128 11.2371 11.4934 11.3927 11.696 11.6514C11.8987 11.908 12 12.2413 12 12.6514H11.1216C11.1216 12.3991 11.0709 12.2108 10.9696 12.0868C10.8703 11.9606 10.7366 11.8975 10.5684 11.8975C10.4022 11.8975 10.2736 11.9469 10.1824 12.0457C10.0912 12.1425 10.0456 12.2771 10.0456 12.4495C10.0456 12.6094 10.0902 12.7376 10.1793 12.8344C10.2685 12.9311 10.4336 13.03 10.6748 13.1309C10.9179 13.2319 11.1175 13.3275 11.2736 13.418C11.4296 13.5063 11.5613 13.6073 11.6687 13.7208C11.7761 13.8323 11.8582 13.9606 11.9149 14.1057C11.9716 14.2487 12 14.4159 12 14.6073C12 14.9648 11.8926 15.255 11.6778 15.4779C11.463 15.7008 11.1672 15.8323 10.7903 15.8722V16.5H10.307V15.8754C9.89159 15.8291 9.5694 15.6767 9.34043 15.418C9.11348 15.1572 9 14.8113 9 14.3801H9.87842C9.87842 14.6304 9.93516 14.8228 10.0486 14.9574C10.1641 15.0899 10.3293 15.1562 10.5441 15.1562C10.7224 15.1562 10.8632 15.1078 10.9666 15.011C11.0699 14.9122 11.1216 14.7797 11.1216 14.6136Z" fill="#004EBC"/>
<circle cx="5" cy="13.5" r="1" fill="#004EBC"/>
<circle cx="16" cy="13.5" r="1" fill="#004EBC"/>
<path fill-rule="evenodd" clip-rule="evenodd" d="M7 6.5H21C21.2761 6.5 21.5 6.72386 21.5 7V14C21.5 14.2761 21.2761 14.5 21 14.5V16C22.1046 16 23 15.1046 23 14V7C23 5.89543 22.1046 5 21 5H7C5.89543 5 5 5.89543 5 7H6.5C6.5 6.72386 6.72386 6.5 7 6.5Z" fill="#004EBC"/>
</svg>
