<svg width="20" height="20" viewBox="0 0 20 20" fill="none" xmlns="http://www.w3.org/2000/svg">
<path fill-rule="evenodd" clip-rule="evenodd" d="M9.82923 0.853456C9.88004 0.843476 9.94102 0.833496 9.99183 0.833496C10.0352 0.833496 10.0786 0.840776 10.1284 0.849119C10.1369 0.850544 10.1455 0.852 10.1544 0.853456L17.6749 2.89936C17.9087 2.96922 18.0815 3.15885 18.1119 3.39837L18.1132 3.40816C18.1697 3.83543 19.116 10.9951 16.5977 14.576C14.059 18.1859 10.3129 19.1055 10.1447 19.1468L10.1443 19.1469C10.1369 19.1483 10.1297 19.1498 10.1226 19.1512C10.0814 19.1595 10.0454 19.1668 10.002 19.1668C9.95859 19.1668 9.9226 19.1595 9.88136 19.1512C9.87432 19.1498 9.86713 19.1483 9.85972 19.1469C9.69711 19.1069 5.94702 18.1788 3.40632 14.576C0.883572 11.0031 1.82987 3.86732 1.89037 3.41112C1.89104 3.40603 1.8916 3.40178 1.89205 3.39837C1.92254 3.15885 2.09531 2.95924 2.32905 2.89936L9.82923 0.853456ZM6.66699 8.37731C6.66699 6.51685 8.164 5.00016 10.0003 5.00016C11.8367 5.00016 13.3337 6.51685 13.3337 8.37731C13.3337 11.0265 10.0003 15.0002 10.0003 15.0002C10.0003 15.0002 6.66699 11.0467 6.66699 8.37731Z" fill="#004EBC"/>
<ellipse cx="9.99967" cy="8.33317" rx="1.66667" ry="1.66667" fill="#004EBC"/>
</svg>
