<svg width="131" height="33" viewBox="0 0 131 33" fill="none" xmlns="http://www.w3.org/2000/svg">
<path d="M38.1426 28.0136C38.1426 25.27 40.182 23.4248 42.6828 23.4248C44.2367 23.4248 45.3292 24.1046 46.1305 25.0758L45.2564 25.6099C44.698 24.9058 43.7511 24.396 42.7071 24.396C40.7647 24.396 39.308 25.877 39.308 27.9893C39.308 30.0773 40.789 31.6069 42.7071 31.6069C43.7754 31.6069 44.6494 31.0971 45.0864 30.66V28.8634H42.0515V27.8922H46.2033V31.0971C45.3778 32.0197 44.1638 32.6267 42.7314 32.6267C40.182 32.6024 38.1426 30.7571 38.1426 28.0136Z" fill="#141414"/>
<path d="M55.5751 32.4319L53.3171 28.9114H51.5447V32.4319H50.4521V23.5942H53.9969C55.6236 23.5942 56.7648 24.6382 56.7648 26.265C56.7648 27.8674 55.6722 28.7414 54.4582 28.8386L56.8376 32.4562H55.5751V32.4319ZM55.6479 26.2407C55.6479 25.2452 54.9195 24.5654 53.8755 24.5654H51.5447V27.9402H53.8755C54.9438 27.9402 55.6479 27.2361 55.6479 26.2407Z" fill="#141414"/>
<path d="M60.334 28.0136C60.334 25.3914 62.1064 23.4248 64.7285 23.4248C67.3507 23.4248 69.1231 25.3914 69.1231 28.0136C69.1231 30.6357 67.3507 32.6024 64.7285 32.6024C62.0821 32.6024 60.334 30.6357 60.334 28.0136ZM67.9577 28.0136C67.9577 25.9498 66.6952 24.4203 64.7043 24.4203C62.7134 24.4203 61.4508 25.9498 61.4508 28.0136C61.4508 30.0773 62.7134 31.6069 64.7043 31.6069C66.6952 31.6069 67.9577 30.0773 67.9577 28.0136Z" fill="#141414"/>
<path d="M72.5469 28.9842V23.5942H73.6394V28.9842C73.6394 30.611 74.5135 31.6307 76.1402 31.6307C77.7669 31.6307 78.641 30.611 78.641 28.9842V23.5942H79.7335V28.9842C79.7335 31.1937 78.5196 32.6019 76.1159 32.6019C73.7608 32.6019 72.5469 31.1694 72.5469 28.9842Z" fill="#141414"/>
<path d="M84.1523 32.4319V23.5942H87.6971C89.4695 23.5942 90.465 24.8082 90.465 26.265C90.465 27.7217 89.4452 28.9357 87.6971 28.9357H85.2449V32.4319H84.1523ZM89.3238 26.2407C89.3238 25.2452 88.6197 24.5654 87.5514 24.5654H85.2206V27.9402H87.5514C88.6197 27.9402 89.3238 27.2361 89.3238 26.2407Z" fill="#141414"/>
<path d="M7.13811 0.625488H0V7.76359H7.13811V0.625488Z" fill="#BE2B2F"/>
<path d="M16.7039 16.6255L10.5127 0.625488H14.3974L18.8405 12.9351L23.2593 0.625488H27.144L20.9771 16.6255H16.7039Z" fill="#141414"/>
<path d="M39.891 16.6255L32.2673 6.18544V16.6255H28.8682V0.625488H32.3644L39.7696 10.6771V0.625488H43.1687V16.6255H39.891Z" fill="#141414"/>
<path d="M44.8926 3.61184H49.5785V16.6255H53.0019V0.625488H44.8926V3.61184Z" fill="#141414"/>
<path d="M68.3708 16.6255L65.2387 10.9442H62.738V16.6255H59.3389V0.625488H66.8169C70.1432 0.625488 72.1826 2.81062 72.1826 5.77269C72.1826 8.61337 70.4102 10.1187 68.6864 10.5314L72.2797 16.6255H68.3708ZM68.7107 5.77269C68.7107 4.43733 67.6667 3.61184 66.307 3.61184H62.738V7.93355H66.307C67.6909 7.93355 68.7107 7.13233 68.7107 5.77269Z" fill="#141414"/>
<path d="M85.8754 16.6255L84.8799 13.9062H78.0089L76.9892 16.6255H73.1045L79.3443 0.625488H83.6174L89.7844 16.6255H85.8754ZM81.4808 4.02459L78.9801 10.9199H83.9816L81.4808 4.02459Z" fill="#141414"/>
<path d="M93.3777 16.6255L87.1865 0.625488H91.0712L95.5143 12.9351L99.9331 0.625488H103.818L97.6509 16.6255H93.3777Z" fill="#141414"/>
<path d="M105.445 16.6255V0.625488H116.759V3.61184H108.844V6.98666H116.59V9.97301H108.844V13.5906H116.759V16.6012H105.445V16.6255Z" fill="#141414"/>
<path d="M120.207 16.6255V0.625488H123.606V13.6392H130.38V16.6498H120.207V16.6255Z" fill="#141414"/>
<path d="M7.13811 9.4873H0V16.6254H7.13811V9.4873Z" fill="#00A79C"/>
<path d="M57.6397 0.625488H54.6533V3.61184H57.6397V0.625488Z" fill="#00A79C"/>
</svg>
