<svg width="24" height="24" viewBox="0 0 24 24" fill="none" xmlns="http://www.w3.org/2000/svg">
<rect x="10.75" y="7.75" width="11.5" height="8.5" rx="1.25" stroke="#004EBC" stroke-width="1.5"/>
<path d="M11 10H22" stroke="#004EBC"/>
<path d="M2 12H10" stroke="#004EBC" stroke-width="1.5"/>
<path fill-rule="evenodd" clip-rule="evenodd" d="M17.0208 18C15.4818 19.5443 13.3525 20.5 11 20.5C6.30558 20.5 2.5 16.6944 2.5 12C2.5 7.30558 6.30558 3.5 11 3.5C13.3525 3.5 15.4818 4.45569 17.0208 6H19.0007C17.1763 3.57111 14.2716 2 11 2C5.47715 2 1 6.47715 1 12C1 17.5228 5.47715 22 11 22C14.2716 22 17.1763 20.4289 19.0007 18H17.0208Z" fill="#004EBC"/>
<path fill-rule="evenodd" clip-rule="evenodd" d="M13.0066 6C12.8945 5.82554 12.7789 5.66501 12.6609 5.51907C12.0353 4.74588 11.4509 4.5 11 4.5C10.4114 4.5 9.56313 4.94714 8.7757 6.3645C8.01651 7.73106 7.5 9.72056 7.5 12C7.5 14.2794 8.01651 16.2689 8.7757 17.6355C9.56313 19.0529 10.4114 19.5 11 19.5C11.5348 19.5 12.2841 19.1308 13.0072 18H14.7268C13.8113 19.8412 12.4808 21 11 21C8.23858 21 6 16.9706 6 12C6 7.02944 8.23858 3 11 3C12.4808 3 13.8113 4.15875 14.7268 6H13.0066Z" fill="#004EBC"/>
</svg>
