<svg width="20" height="20" viewBox="0 0 20 20" fill="none" xmlns="http://www.w3.org/2000/svg">
<path fill-rule="evenodd" clip-rule="evenodd" d="M16.6293 11.667C15.8853 14.6354 13.1997 16.8337 10.0006 16.8337C6.80158 16.8337 4.11597 14.6354 3.37198 11.667H1.83398C2.6061 15.4707 5.96902 18.3337 10.0006 18.3337C14.0322 18.3337 17.3951 15.4707 18.1673 11.667H16.6293ZM3.37198 8.33366C4.11597 5.36528 6.80158 3.16699 10.0006 3.16699C13.1997 3.16699 15.8853 5.36528 16.6293 8.33366H18.1673C17.3951 4.52992 14.0322 1.66699 10.0006 1.66699C5.96902 1.66699 2.6061 4.52992 1.83398 8.33366H3.37198Z" fill="#677072"/>
<path d="M15 6.66634L17.5 8.33301L18.75 5.83301" stroke="#677072" stroke-width="1.5" stroke-linecap="round" stroke-linejoin="round"/>
<path d="M5 13.3337L2.5 11.667L1.25 14.167" stroke="#677072" stroke-width="1.5" stroke-linecap="round" stroke-linejoin="round"/>
</svg>
