<svg width="16" height="16" viewBox="0 0 16 16" fill="none" xmlns="http://www.w3.org/2000/svg">
<path fill-rule="evenodd" clip-rule="evenodd" d="M5.05505 11.1667H2.51918C2.47826 11.1667 2.4393 11.1611 2.40398 11.1518C2.94253 10.1653 3.98789 9.5 5.18585 9.5C5.38962 9.5 5.58898 9.51925 5.78218 9.55605C6.08776 9.09157 6.4598 8.67466 6.88482 8.31892C6.35833 8.11302 5.78529 8 5.18585 8C3.30064 8 1.67652 9.11786 0.940187 10.7269C0.480549 11.7313 1.41461 12.6667 2.51918 12.6667H5.30535C5.03855 12.247 4.92145 11.7202 5.05505 11.1667Z" fill="#677072"/>
<path d="M7.10299 11.039C7.72175 9.68688 9.08559 8.75 10.6667 8.75C12.2477 8.75 13.6116 9.68688 14.2303 11.039C14.3233 11.242 14.2881 11.4158 14.1447 11.5798C13.9822 11.7658 13.6836 11.9167 13.3333 11.9167H8C7.64974 11.9167 7.35113 11.7658 7.18862 11.5798C7.04522 11.4158 7.01008 11.242 7.10299 11.039Z" stroke="#677072" stroke-width="1.5" stroke-linejoin="round"/>
<path d="M6.25033 5.66667C6.25033 6.17293 5.83992 6.58333 5.33366 6.58333C4.8274 6.58333 4.41699 6.17293 4.41699 5.66667C4.41699 5.16041 4.8274 4.75 5.33366 4.75C5.83992 4.75 6.25033 5.16041 6.25033 5.66667Z" stroke="#677072" stroke-width="1.5"/>
<circle cx="10.667" cy="5.3335" r="1.25" stroke="#677072" stroke-width="1.5"/>
</svg>
