<svg width="24" height="24" viewBox="0 0 24 24" fill="none" xmlns="http://www.w3.org/2000/svg">
<path d="M12.6857 21C17.3359 20.6492 21 16.7595 21 12.0129C21 7.03521 16.9706 3 12 3C7.02944 3 3 7.03521 3 12.0129C3 13.1729 3.21883 14.2817 3.6174 15.3002" stroke="#004EBC" stroke-width="1.5" stroke-linecap="round"/>
<circle cx="12" cy="12" r="6" fill="#004EBC"/>
<path d="M6 19L7 15L11 17L6 19Z" fill="#004EBC" stroke="#004EBC"/>
<circle cx="12" cy="21" r="2" fill="#004EBC"/>
<path fill-rule="evenodd" clip-rule="evenodd" d="M3.83911 8.54785C2.21626 8.90006 1 10.3543 1 12.0947C1 13.8922 2.29732 15.3844 4.00001 15.6726C3.47218 14.5346 3.17734 13.265 3.17734 11.9259C3.17734 10.7297 3.41262 9.58889 3.83911 8.54785Z" fill="#004EBC"/>
<path fill-rule="evenodd" clip-rule="evenodd" d="M20.1608 8.54688C21.7837 8.89907 23 10.3533 23 12.0937C23 13.8912 21.7027 15.3834 20 15.6716C20.5278 14.5337 20.8226 13.264 20.8226 11.925C20.8226 10.7288 20.5873 9.58792 20.1608 8.54688Z" fill="#004EBC"/>
</svg>
