<svg width="24" height="24" viewBox="0 0 24 24" fill="none" xmlns="http://www.w3.org/2000/svg">
<circle cx="11" cy="11" r="9.25" stroke="#677072" stroke-width="1.5"/>
<path d="M18 18L21.5 21.5" stroke="#677072" stroke-width="3" stroke-linecap="round" stroke-linejoin="round"/>
<path fill-rule="evenodd" clip-rule="evenodd" d="M13.3935 12.9359C14.3722 11.867 15.25 10.9082 15.25 9.09874C15.25 6.7034 13.1805 4.78796 10.72 5.01891C8.30054 5.24598 6.64352 7.57369 7.06576 9.94996C7.29429 11.2363 8.03757 12.0481 8.85042 12.936C9.56288 13.7141 10.3288 14.5507 10.8484 15.8163C10.9486 16.0604 11.2948 16.0617 11.395 15.8175C11.9146 14.5512 12.6808 13.7143 13.3935 12.9359ZM11.125 11.1875C12.2641 11.1875 13.1875 10.2641 13.1875 9.125C13.1875 7.98591 12.2641 7.0625 11.125 7.0625C9.98591 7.0625 9.0625 7.98591 9.0625 9.125C9.0625 10.2641 9.98591 11.1875 11.125 11.1875Z" fill="#677072"/>
</svg>
