<svg width="24" height="24" viewBox="0 0 24 24" fill="none" xmlns="http://www.w3.org/2000/svg">
<path fill-rule="evenodd" clip-rule="evenodd" d="M20.2634 14C19.364 17.7294 16.0056 20.5 12 20.5C7.9945 20.5 4.63607 17.7294 3.73667 14H2.20007C3.12661 18.5645 7.16212 22 12 22C16.838 22 20.8735 18.5645 21.8 14H20.2634ZM3.73667 10C4.63607 6.27063 7.9945 3.5 12 3.5C16.0056 3.5 19.364 6.27063 20.2634 10H21.8C20.8735 5.43552 16.838 2 12 2C7.16212 2 3.12661 5.43552 2.20007 10H3.73667Z" fill="#FF5922"/>
<path d="M18 8L21 10L22.5 7" stroke="#FF5922" stroke-width="1.5" stroke-linecap="round" stroke-linejoin="round"/>
<path d="M6 16L3 14L1.5 17" stroke="#FF5922" stroke-width="1.5" stroke-linecap="round" stroke-linejoin="round"/>
<path d="M12 10.95C10.0167 10.95 8.30586 11.9044 7.51597 13.2824C7.0216 14.1449 7.85594 15 8.85005 15H15.15C16.1442 15 16.9785 14.1449 16.4841 13.2824C15.6942 11.9044 13.9834 10.95 12 10.95Z" fill="#FF5922"/>
<circle cx="12" cy="8.25" r="2.25" fill="#FF5922"/>
</svg>
