<svg width="18" height="18" viewBox="0 0 18 18" fill="none" xmlns="http://www.w3.org/2000/svg">
<path fill-rule="evenodd" clip-rule="evenodd" d="M4.41699 0.166504C4.69313 0.166504 4.91699 0.390362 4.91699 0.666504V3.58317C4.91699 3.85931 4.69313 4.08317 4.41699 4.08317C4.14085 4.08317 3.91699 3.85931 3.91699 3.58317V0.666504C3.91699 0.390362 4.14085 0.166504 4.41699 0.166504ZM12.3337 1.49984H5.66699V3.58317C5.66699 4.27353 5.10735 4.83317 4.41699 4.83317C3.72664 4.83317 3.16699 4.27353 3.16699 3.58317V1.54132C1.74814 1.77936 0.666992 3.01334 0.666992 4.49984V5.99984H17.3337V4.49984C17.3337 3.01334 16.2525 1.77936 14.8337 1.54132V3.58317C14.8337 4.27353 14.274 4.83317 13.5837 4.83317C12.8933 4.83317 12.3337 4.27353 12.3337 3.58317V1.49984ZM0.666992 14.3332V6.99984H17.3337V14.3332C17.3337 15.99 15.9905 17.3332 14.3337 17.3332H3.66699C2.01014 17.3332 0.666992 15.99 0.666992 14.3332ZM11.1471 8.007C10.8289 7.74183 10.356 7.78482 10.0908 8.10303C9.82565 8.42124 9.86865 8.89416 10.1869 9.15934L11.0955 9.9165H4.83366C4.41945 9.9165 4.08366 10.2523 4.08366 10.6665C4.08366 11.0807 4.41945 11.4165 4.83366 11.4165H13.167C13.4828 11.4165 13.7647 11.2187 13.8722 10.9218C13.9797 10.6249 13.8897 10.2925 13.6471 10.0903L11.1471 8.007ZM4.83366 11.9998C4.51789 11.9998 4.23595 12.1976 4.12846 12.4945C4.02096 12.7914 4.11094 13.1239 4.35352 13.326L6.85352 15.4093C7.17173 15.6745 7.64465 15.6315 7.90983 15.3133C8.175 14.9951 8.13201 14.5222 7.8138 14.257L6.9052 13.4998H13.167C13.5812 13.4998 13.917 13.1641 13.917 12.7498C13.917 12.3356 13.5812 11.9998 13.167 11.9998H4.83366ZM14.0837 0.666504C14.0837 0.390362 13.8598 0.166504 13.5837 0.166504C13.3075 0.166504 13.0837 0.390362 13.0837 0.666504V3.58317C13.0837 3.85931 13.3075 4.08317 13.5837 4.08317C13.8598 4.08317 14.0837 3.85931 14.0837 3.58317V0.666504Z" fill="#004EBC"/>
</svg>
