<svg width="24" height="24" viewBox="0 0 24 24" fill="none" xmlns="http://www.w3.org/2000/svg">
<path fill-rule="evenodd" clip-rule="evenodd" d="M20.2634 14C19.364 17.7294 16.0056 20.5 12 20.5C7.9945 20.5 4.63607 17.7294 3.73667 14H2.20007C3.12661 18.5645 7.16212 22 12 22C16.838 22 20.8735 18.5645 21.8 14H20.2634ZM3.73667 10C4.63607 6.27063 7.9945 3.5 12 3.5C16.0056 3.5 19.364 6.27063 20.2634 10H21.8C20.8735 5.43552 16.838 2 12 2C7.16212 2 3.12661 5.43552 2.20007 10H3.73667Z" fill="#677072"/>
<path d="M18.5 9L21 10.5L22.5 8" stroke="#677072" stroke-width="1.5" stroke-linecap="round" stroke-linejoin="round"/>
<path d="M5.5 15L3 13.5L1.5 16" stroke="#677072" stroke-width="1.5" stroke-linecap="round" stroke-linejoin="round"/>
<path d="M12 11.5V17" stroke="#677072" stroke-width="2" stroke-linecap="round" stroke-linejoin="round"/>
<circle cx="12" cy="8" r="1.5" fill="#677072"/>
</svg>
