<svg width="20" height="20" viewBox="0 0 20 20" fill="none" xmlns="http://www.w3.org/2000/svg">
<path d="M1.68816 10.2449C1.61584 10.103 1.59369 10.0247 1.58693 9.99984C1.59369 9.975 1.61584 9.89668 1.68816 9.75478C1.78352 9.56766 1.93554 9.32913 2.14757 9.05384C2.5706 8.5046 3.19699 7.85498 3.98179 7.23372C5.56031 5.98412 7.69199 4.9165 10.0007 4.9165C12.3093 4.9165 14.441 5.98412 16.0195 7.23372C16.8043 7.85498 17.4307 8.5046 17.8537 9.05384C18.0658 9.32913 18.2178 9.56766 18.3131 9.75478C18.3855 9.89668 18.4076 9.975 18.4144 9.99984C18.4076 10.0247 18.3855 10.103 18.3131 10.2449C18.2178 10.432 18.0658 10.6705 17.8537 10.9458C17.4307 11.4951 16.8043 12.1447 16.0195 12.766C14.441 14.0156 12.3093 15.0832 10.0007 15.0832C7.69199 15.0832 5.56031 14.0156 3.98179 12.766C3.19699 12.1447 2.5706 11.4951 2.14757 10.9458C1.93554 10.6705 1.78352 10.432 1.68816 10.2449Z" stroke="#677072" stroke-width="1.5"/>
<path d="M9.99935 6.6665C8.15907 6.6665 6.66602 8.15956 6.66602 9.99984C6.66602 11.8401 8.15907 13.3332 9.99935 13.3332C11.8396 13.3332 13.3327 11.8401 13.3327 9.99984C13.3327 8.15956 11.8396 6.6665 9.99935 6.6665ZM9.09657 9.99984C8.33268 9.99984 7.67296 9.37484 7.67296 8.57623C7.67296 7.81234 8.29796 7.15262 9.09657 7.15262C9.86046 7.15262 10.5202 7.77761 10.5202 8.57623C10.5202 9.37484 9.89518 9.99984 9.09657 9.99984Z" fill="#677072"/>
</svg>
