<svg width="20" height="20" viewBox="0 0 20 20" fill="none" xmlns="http://www.w3.org/2000/svg">
<path d="M1.58301 4.6665C1.58301 3.42386 2.59037 2.4165 3.83301 2.4165H16.1663C17.409 2.4165 18.4163 3.42386 18.4163 4.6665V11.7617C18.4163 13.0044 17.409 14.0117 16.1663 14.0117H6.91193C6.54308 14.0117 6.18162 14.1152 5.86861 14.3103L2.30504 16.5317C1.9905 16.7278 1.58301 16.5017 1.58301 16.131V14.7617V4.6665Z" stroke="#677072" stroke-width="1.5" stroke-linecap="round" stroke-linejoin="round"/>
<path d="M6.27092 9.16402C6.27092 8.99375 6.2117 8.86208 6.09325 8.769C5.97689 8.67365 5.77221 8.59192 5.47922 8.52381C5.18831 8.45571 4.95661 8.37398 4.78414 8.27863C4.61375 8.18328 4.487 8.06977 4.40388 7.9381C4.32284 7.80643 4.28232 7.64978 4.28232 7.46816C4.28232 7.16622 4.39868 6.91082 4.63141 6.70196C4.86622 6.4931 5.16545 6.38867 5.52909 6.38867C5.91143 6.38867 6.22105 6.49651 6.45794 6.71218C6.6969 6.92785 6.81638 7.20368 6.81638 7.53967H6.23663C6.23663 7.36714 6.1691 7.21844 6.03403 7.09358C5.90104 6.96871 5.73273 6.90628 5.52909 6.90628C5.31922 6.90628 5.15506 6.95623 5.03662 7.05612C4.91817 7.15601 4.85895 7.28654 4.85895 7.44773C4.85895 7.59983 4.91402 7.71448 5.02415 7.79167C5.13428 7.86886 5.33272 7.94264 5.61948 8.01302C5.90832 8.08339 6.14209 8.16739 6.32079 8.26501C6.49949 8.36263 6.63144 8.48068 6.71664 8.61916C6.80391 8.75538 6.84755 8.92224 6.84755 9.11975C6.84755 9.44893 6.72703 9.71341 6.48599 9.91319C6.24494 10.1107 5.93221 10.2095 5.54779 10.2095C5.27766 10.2095 5.03869 10.1572 4.8309 10.0528C4.6231 9.94838 4.45998 9.80308 4.34154 9.61693C4.22517 9.4285 4.16699 9.22531 4.16699 9.00737H4.74362C4.75401 9.2185 4.8309 9.3865 4.97428 9.51136C5.11973 9.63395 5.31091 9.69525 5.54779 9.69525C5.76598 9.69525 5.94052 9.64757 6.07144 9.55223C6.20442 9.45461 6.27092 9.3252 6.27092 9.16402Z" fill="#677072"/>
<path d="M8.18038 6.45678L8.19597 6.86542C8.44324 6.54759 8.77676 6.38867 9.1965 6.38867C9.6682 6.38867 9.98924 6.58618 10.1596 6.9812C10.2718 6.80412 10.4173 6.6611 10.596 6.55213C10.7768 6.44316 10.9898 6.38867 11.235 6.38867C11.9747 6.38867 12.3508 6.81661 12.3633 7.67248V10.1413H11.7867V7.70994C11.7867 7.44659 11.7316 7.25022 11.6215 7.12082C11.5113 6.98915 11.3264 6.92331 11.0667 6.92331C10.8526 6.92331 10.675 6.99369 10.5337 7.13444C10.3924 7.27292 10.3103 7.46022 10.2874 7.69632V10.1413H9.70768V7.72697C9.70768 7.1912 9.46767 6.92331 8.98767 6.92331C8.60948 6.92331 8.35077 7.09925 8.21155 7.45114V10.1413H7.63492V6.45678H8.18038Z" fill="#677072"/>
<path d="M15.257 9.23212C15.257 9.06186 15.1978 8.93018 15.0794 8.83711C14.963 8.74176 14.7583 8.66003 14.4653 8.59192C14.1744 8.52381 13.9427 8.44209 13.7703 8.34674C13.5999 8.25139 13.4731 8.13788 13.39 8.0062C13.3089 7.87453 13.2684 7.71789 13.2684 7.53627C13.2684 7.23433 13.3848 6.97893 13.6175 6.77007C13.8523 6.56121 14.1516 6.45678 14.5152 6.45678C14.8975 6.45678 15.2072 6.56461 15.444 6.78029C15.683 6.99596 15.8025 7.27179 15.8025 7.60778H15.2227C15.2227 7.43524 15.1552 7.28654 15.0201 7.16168C14.8872 7.03682 14.7188 6.97439 14.5152 6.97439C14.3053 6.97439 14.1412 7.02433 14.0227 7.12422C13.9043 7.22411 13.8451 7.35465 13.8451 7.51584C13.8451 7.66794 13.9001 7.78259 14.0103 7.85978C14.1204 7.93696 14.3188 8.01074 14.6056 8.08112C14.8944 8.1515 15.1282 8.2355 15.3069 8.33312C15.4856 8.43074 15.6176 8.54879 15.7027 8.68727C15.79 8.82348 15.8337 8.99035 15.8337 9.18785C15.8337 9.51704 15.7131 9.78152 15.4721 9.9813C15.2311 10.1788 14.9183 10.2776 14.5339 10.2776C14.2638 10.2776 14.0248 10.2253 13.817 10.1209C13.6092 10.0165 13.4461 9.87119 13.3276 9.68503C13.2113 9.4966 13.1531 9.29342 13.1531 9.07548H13.7297C13.7401 9.28661 13.817 9.45461 13.9604 9.57947C14.1058 9.70206 14.297 9.76336 14.5339 9.76336C14.7521 9.76336 14.9266 9.71568 15.0575 9.62033C15.1905 9.52271 15.257 9.39331 15.257 9.23212Z" fill="#677072"/>
</svg>
