<svg width="24" height="24" viewBox="0 0 24 24" fill="none" xmlns="http://www.w3.org/2000/svg">
<path fill-rule="evenodd" clip-rule="evenodd" d="M3 1C1.89543 1 1 1.89543 1 3V23H5V20.5C5 19.1193 6.11929 18 7.5 18C8.88071 18 10 19.1193 10 20.5V23H12.5H14H23V15.4782C23 14.2781 22.2848 13.1935 21.1818 12.7208L14 9.64286V3C14 1.89543 13.1046 1 12 1H3ZM4 4H7V7H4V4ZM7 8H4V11H7V8ZM4 12H7V15H4V12ZM11 4H8V7H11V4ZM8 8H11V11H8V8ZM11 12H8V15H11V12ZM15 17V15H17V17H15ZM17 20V18H15V20H17ZM18 15H20V17H18V15ZM20 18H18V20H20V18ZM16.75 3.5C16.75 3.08579 16.4142 2.75 16 2.75C15.5858 2.75 15.25 3.08579 15.25 3.5V6V8.5C15.25 8.91421 15.5858 9.25 16 9.25C16.4142 9.25 16.75 8.91421 16.75 8.5V6.75H19.25V8.5C19.25 8.91421 19.5858 9.25 20 9.25C20.4142 9.25 20.75 8.91421 20.75 8.5V6V3.5C20.75 3.08579 20.4142 2.75 20 2.75C19.5858 2.75 19.25 3.08579 19.25 3.5V5.25H16.75V3.5Z" fill="#677072"/>
</svg>
