<svg width="100" height="100" viewBox="0 0 100 100" fill="none" xmlns="http://www.w3.org/2000/svg">
<path d="M81.7248 44.7548L54.8629 79.5069C46.5656 78.6211 36.7331 76.1616 28.8979 71.5727C19.4066 66.0154 15.8796 57.6686 16.1327 50.9999C16.2978 46.6971 16.87 38.3447 30.334 27.2632C39.5337 19.7032 47.2644 17.9095 53.0747 16.8805C55.9964 16.3798 60.2881 16.2038 63.2043 16.743C70.4673 18.1075 79.1608 23.1861 81.3232 40.232C81.5158 41.7671 81.6533 43.2747 81.7248 44.7548Z" fill="#E8F2FF"/>
<path d="M20.8316 21.1721C21.3818 20.1157 23.7367 15.1967 23.5332 9.8155C23.4341 7.1029 22.7078 6.04647 21.932 6.00245C21.1562 5.95843 20.2813 6.89381 19.7971 9.54039C18.8178 14.839 20.4464 20.0441 20.8316 21.1721Z" fill="#BAD7FF"/>
<path d="M23.714 29.1124C22.7071 27.9514 17.8156 22.7463 11.1524 20.4463C7.85108 19.3019 6.20041 19.654 5.76024 20.5949C5.32006 21.5358 6.06286 23.0159 9.06157 24.8646C15.0535 28.5621 22.1569 29.0463 23.714 29.1124Z" fill="#BAD7FF"/>
<path d="M27.5275 39.8358C26.7517 38.961 23.0817 35.0379 18.0801 33.3047C15.5766 32.4408 14.3276 32.7105 14.014 33.4202C13.7004 34.13 14.2451 35.2415 16.4955 36.639C21.0018 39.4232 26.361 39.7918 27.5 39.8358" fill="#BAD7FF"/>
<path d="M24.875 32.4136C24.93 31.1316 25.3317 25.2607 28.3799 20.3087C29.9095 17.8382 31.131 17.2055 31.9069 17.5906C32.6827 17.9758 32.9743 19.2963 32.0279 22.0364C30.1296 27.5222 25.8379 31.5388 24.875 32.4136Z" fill="#BAD7FF"/>
<path d="M20.749 21.0683L29.7342 46.3346L29.9157 46.2686L20.9306 21.0078L20.749 21.0683Z" fill="#4794FF"/>
<path d="M21.8334 5.99979L20.7432 21.0254L20.9352 21.0393L22.0255 6.01372L21.8334 5.99979Z" fill="#4794FF"/>
<path d="M5.8258 20.5048L5.74316 20.6787L23.6698 29.1947L23.7524 29.0208L5.8258 20.5048Z" fill="#4794FF"/>
<path d="M27.5716 39.7531L14.0581 33.332L13.9756 33.5026L27.4891 39.9237L27.5716 39.7531Z" fill="#4794FF"/>
<path d="M31.8202 17.5514L24.7891 32.3457L24.963 32.4284L31.9942 17.6341L31.8202 17.5514Z" fill="#4794FF"/>
<path d="M32.395 20.4494L29.373 22.7109L29.4884 22.8651L32.5104 20.6036L32.395 20.4494Z" fill="#4794FF"/>
<path d="M20.2167 36.2739L16.3076 36.4268L16.3151 36.6192L20.2242 36.4663L20.2167 36.2739Z" fill="#4794FF"/>
<path d="M95.4907 14.8887C95.0934 17.6992 94.3313 20.446 93.2238 23.0595C92.2601 21.6196 91.011 20.3929 89.5538 19.4555C87.2374 18.0194 83.7105 17.7663 81.4105 17.9589C79.1106 18.1515 76.9702 20.1598 75.094 22.0086C73.9605 23.109 72.8546 24.6276 72.651 26.4103C72.4474 28.1931 73.2012 30.4875 75.4461 32.6279C77.691 34.7682 80.5412 35.456 83.2483 35.5936C86.0984 35.7421 90.2526 34.4931 91.7602 32.2262" fill="#FFB920"/>
<path d="M78.1484 34.6415C78.1484 34.6415 78.6547 33.288 79.3534 31.1696C80.0522 29.0512 83.271 28.1159 85.8571 29.9756C88.4431 31.8354 89.9452 34.3114 89.7967 38.5701C89.6481 42.8288 89.1804 49.5746 87.8929 53.6957C86.6054 57.8169 76.3712 65.5915 76.3712 65.5915C75.3461 66.9921 74.0112 68.137 72.4708 68.9368C70.9304 69.7366 69.226 70.1697 67.4906 70.2024C61.4382 70.3785 65.906 55.3079 65.906 55.3079C72.5087 58.9283 69.5265 70.6756 69.5265 70.6756C70.2748 70.9122 75.4248 73.003 70.0767 73.1461C64.7285 73.2892 59.0722 70.8957 59.0722 70.8957C56.6182 66.1088 45.3607 45.8385 47.7101 41.4092C50.2136 36.6773 60.0296 45.0627 68.1949 39.9622C71.4194 37.9993 74.7537 36.2229 78.1815 34.6415" fill="#FFB920"/>
<path d="M76.5913 20.9249C76.5251 18.3481 76.8536 15.7763 77.5652 13.2988C79.4576 14.5505 80.963 16.3055 81.912 18.3664" fill="#FFB920"/>
<path d="M88.6186 18.9658C88.6186 18.9658 91.9695 16.1322 95.4909 14.8887C95.4909 14.8887 95.876 15.6535 94.8856 22.9714C94.8856 22.9714 93.7852 31.8135 93.6476 36.0778C93.4716 41.0573 93.0479 45.5086 92.7178 48.4798C92.2171 53.0026 90.737 67.2534 90.8415 68.3648C91.1882 68.5464 92.0575 69.2947 91.2542 69.7349C90.6816 69.9953 90.0297 70.021 89.4384 69.8064C89.0313 69.6854 85.2843 68.8986 83.8262 59.8254" fill="#FFB920"/>
<path d="M79.9307 59.5391C79.9307 59.5391 80.657 65.52 83.7547 69.7237C86.8525 73.9274 89.0203 74.5657 90.3574 73.6633C90.7646 73.3827 90.3574 72.5243 89.5871 70.7526C88.8168 68.9809 87.5788 64.2215 87.4247 59.7481" fill="#FFB920"/>
<path d="M89.1198 69.6581C89.0822 69.6588 89.0453 69.6474 89.0146 69.6256C88.9839 69.6038 88.961 69.5728 88.9492 69.537C87.9712 66.3608 87.3981 63.0738 87.2435 59.754C87.2435 59.7045 87.183 54.769 87.5792 50.9505C87.5847 50.9032 87.6086 50.8601 87.6456 50.8302C87.6827 50.8004 87.7299 50.7863 87.7773 50.7909C87.8004 50.793 87.823 50.7996 87.8435 50.8104C87.8641 50.8213 87.8823 50.836 87.8972 50.8539C87.912 50.8718 87.9232 50.8925 87.93 50.9147C87.9368 50.937 87.9391 50.9603 87.9368 50.9835C87.5407 54.78 87.6012 59.6935 87.6012 59.743C87.7498 63.0293 88.3156 66.2834 89.2849 69.427C89.2988 69.4722 89.2946 69.5211 89.273 69.5632C89.2514 69.6054 89.2142 69.6374 89.1693 69.6525L89.1198 69.6581Z" fill="#AB364A"/>
<path d="M79.9303 60.6562L80.2549 67.8642C80.957 68.1378 81.5543 68.6271 81.9606 69.2617C82.1257 69.5974 82.0541 69.999 81.5754 70.021L80.1889 70.0761L75.1928 70.2796L67.3192 70.6043L65.8721 70.6648" fill="#FFB920"/>
<path d="M80.5304 61.6087C80.4936 61.609 80.4576 61.5981 80.4272 61.5774C80.3967 61.5568 80.3732 61.5274 80.3599 61.4931C80.344 61.4479 80.3466 61.3982 80.3672 61.3549C80.3879 61.3116 80.4248 61.2782 80.4699 61.262C85.1798 59.5783 90.9517 54.6594 92.3602 48.882C92.3656 48.8593 92.3755 48.8378 92.3892 48.8188C92.4029 48.7999 92.4202 48.7838 92.4402 48.7715C92.4601 48.7593 92.4822 48.7511 92.5054 48.7474C92.5285 48.7437 92.5521 48.7445 92.5748 48.75C92.5976 48.7554 92.619 48.7652 92.638 48.7789C92.657 48.7927 92.673 48.81 92.6853 48.8299C92.6975 48.8498 92.7058 48.872 92.7095 48.8951C92.7132 48.9182 92.7123 48.9418 92.7069 48.9645C91.2708 54.8739 85.3889 59.8865 80.602 61.6197C80.5776 61.623 80.5527 61.6192 80.5304 61.6087Z" fill="#AB364A"/>
<path d="M83.7326 35.8139H83.2429C81.4766 35.7597 79.7366 35.3714 78.1148 34.6695C78.0933 34.66 78.0739 34.6463 78.0577 34.6291C78.0416 34.612 78.029 34.5918 78.0208 34.5698C78.0126 34.5477 78.0089 34.5242 78.0099 34.5007C78.011 34.4772 78.0167 34.4541 78.0268 34.4329C78.0471 34.3904 78.0831 34.3575 78.1273 34.341C78.1714 34.3246 78.2202 34.326 78.2634 34.3449C79.8437 35.0255 81.5393 35.399 83.2594 35.4453C86.1426 35.5884 90.1867 34.3063 91.6118 32.144C91.638 32.1046 91.6789 32.0772 91.7253 32.0679C91.7717 32.0586 91.82 32.0682 91.8594 32.0944C91.8988 32.1207 91.9261 32.1616 91.9354 32.208C91.9447 32.2544 91.9352 32.3026 91.9089 32.342C90.4563 34.5539 86.6543 35.8139 83.7326 35.8139Z" fill="#AB364A"/>
<path d="M77.0912 27.4008C77.0912 27.4008 76.9206 28.8204 75.9908 28.8369C75.8596 28.8369 75.7293 28.8146 75.6056 28.7709L75.413 28.6939C74.9898 28.4737 74.6246 28.1565 74.3473 27.7683C74.07 27.38 73.8884 26.9317 73.8174 26.46L77.0912 27.4008Z" fill="#FFFAEE"/>
<path d="M86.9406 28.2483C85.7059 29.2941 84.1557 29.8948 82.5388 29.954C82.4067 29.954 82.2747 29.954 82.1481 29.954C81.8881 29.9458 81.6289 29.9201 81.3723 29.877C79.8317 29.6074 79.8262 27.8467 79.8262 27.8467L86.9406 28.2483Z" fill="#FFFAEE"/>
<path d="M76.0796 28.5618C76.0796 28.6608 76.0796 28.7598 76.0355 28.8534C75.9043 28.8534 75.7741 28.8311 75.6504 28.7874C75.6504 28.5288 75.6504 28.1216 75.81 28.0336C76.1071 27.852 76.0796 28.4187 76.0796 28.5618Z" fill="#AB364A"/>
<path d="M82.561 29.7068C82.561 29.7893 82.561 29.8718 82.5225 29.9544C82.3904 29.9544 82.2584 29.9544 82.1318 29.9544C82.1318 29.6958 82.1318 29.2611 82.2914 29.1731C82.616 29.0135 82.572 29.5692 82.561 29.7068Z" fill="#AB364A"/>
<path d="M77.0258 31.1805C77.4584 31.0768 77.9139 31.1335 78.3078 31.3401C78.3375 31.3524 78.3634 31.3724 78.3828 31.398C78.4023 31.4235 78.4146 31.4538 78.4185 31.4857C78.4224 31.5176 78.4178 31.5499 78.4051 31.5795C78.3925 31.609 78.3722 31.6346 78.3464 31.6537L77.9777 31.9343C77.8728 32.0158 77.7407 32.0539 77.6085 32.0405C77.4764 32.0272 77.3544 31.9636 77.2679 31.8628L76.9323 31.4722C76.9112 31.4493 76.8966 31.4212 76.8899 31.3908C76.8832 31.3604 76.8846 31.3288 76.8942 31.2991C76.9037 31.2695 76.9209 31.2429 76.944 31.2221C76.9671 31.2012 76.9954 31.1869 77.0258 31.1805Z" fill="#AB364A"/>
<path d="M89.7911 74.1151C89.7506 74.1151 89.7113 74.1015 89.6794 74.0766C89.6475 74.0517 89.6248 74.0168 89.615 73.9775C89.4078 73.5193 89.0761 73.1285 88.6576 72.8496C88.6182 72.8233 88.5909 72.7825 88.5816 72.736C88.5723 72.6896 88.5818 72.6414 88.6081 72.602C88.6344 72.5626 88.6752 72.5352 88.7217 72.5259C88.7681 72.5166 88.8163 72.5262 88.8557 72.5524C89.3469 72.8792 89.7299 73.3446 89.9562 73.8895C89.968 73.9354 89.9614 73.9842 89.9377 74.0253C89.9141 74.0665 89.8753 74.0967 89.8296 74.1096L89.7911 74.1151Z" fill="#AB364A"/>
<path d="M90.5006 73.2952C90.4674 73.2955 90.4347 73.2863 90.4065 73.2688C90.3783 73.2512 90.3556 73.2261 90.341 73.1962C90.1686 72.837 89.8901 72.5393 89.5432 72.3434C89.5045 72.3315 89.4707 72.3073 89.4469 72.2746C89.4231 72.2418 89.4106 72.2023 89.4112 72.1618C89.414 72.1156 89.4343 72.0722 89.4681 72.0404C89.5018 72.0087 89.5464 71.9911 89.5927 71.9912C90.0673 72.1959 90.4481 72.5708 90.6602 73.0421C90.679 73.0853 90.6804 73.1341 90.664 73.1782C90.6476 73.2224 90.6146 73.2584 90.5721 73.2787C90.5497 73.2892 90.5253 73.2948 90.5006 73.2952Z" fill="#AB364A"/>
<path d="M91.1777 69.9387C91.1539 69.9373 91.1305 69.9312 91.109 69.9207C91.0875 69.9103 91.0683 69.8957 91.0525 69.8778C91.0366 69.8599 91.0245 69.8391 91.0167 69.8165C91.0089 69.7939 91.0057 69.77 91.0072 69.7461C91.0072 69.35 90.545 69.0308 90.5395 69.0308C90.5197 69.0181 90.5027 69.0014 90.4895 68.982C90.4762 68.9625 90.467 68.9406 90.4624 68.9175C90.4578 68.8944 90.4578 68.8706 90.4626 68.8476C90.4673 68.8245 90.4766 68.8026 90.49 68.7832C90.5018 68.7632 90.5175 68.7458 90.5363 68.7321C90.5551 68.7183 90.5765 68.7086 90.5991 68.7035C90.6218 68.6983 90.6453 68.6978 90.6681 68.7021C90.691 68.7064 90.7128 68.7152 90.7321 68.7282C90.9126 68.8388 91.0642 68.9908 91.1742 69.1716C91.2843 69.3525 91.3496 69.557 91.3648 69.7681C91.362 69.8153 91.3408 69.8595 91.3059 69.8914C91.271 69.9232 91.225 69.9402 91.1777 69.9387Z" fill="#AB364A"/>
<path d="M81.9006 74.8689L49.7731 93.8186L12.6221 73.0367L47.6383 49.6797L81.9006 74.8689Z" fill="#004EBC"/>
<path d="M44.54 28.2754L84.6953 46.7189L81.9002 74.8683L44.5841 55.5499L44.54 28.2754Z" fill="#8FC2FF"/>
<path d="M84.6961 46.7197L81.901 74.8691L49.7734 93.8188V65.0752L84.6961 46.7197Z" fill="#1F83FC"/>
<path d="M44.5844 55.5499L44.5403 28.2754L10.2725 44.7546L12.6219 73.036L44.5844 55.5499Z" fill="#85BCFF"/>
<path d="M44.5403 28.2754L26.5866 36.9084L26.4105 36.9909L24.0996 38.1024L23.8795 38.2124L10.2725 44.7546L12.6219 73.036L44.5844 55.5499L44.5403 28.2754Z" fill="#5F9FFF"/>
<path d="M60.8817 59.4903C60.8247 59.4901 60.7692 59.4728 60.7221 59.4408C51.803 53.1242 45.9211 39.8309 44.6006 36.6231C40.1988 49.3442 26.025 54.2632 25.893 54.3127C25.8579 54.3295 25.8197 54.3387 25.7808 54.3396C25.742 54.3406 25.7034 54.3333 25.6675 54.3182C25.6317 54.3032 25.5994 54.2807 25.5729 54.2522C25.5464 54.2238 25.5262 54.1901 25.5137 54.1533C25.5012 54.1165 25.4966 54.0774 25.5002 54.0387C25.5039 54 25.5157 53.9625 25.5349 53.9287C25.5541 53.8949 25.5803 53.8656 25.6116 53.8426C25.643 53.8197 25.6789 53.8036 25.7169 53.7955C25.849 53.746 40.3143 48.728 44.3089 35.7152C44.3267 35.6612 44.3604 35.614 44.4056 35.5796C44.4508 35.5452 44.5053 35.5253 44.5621 35.5226C44.6196 35.5207 44.6764 35.5366 44.7246 35.5681C44.7729 35.5996 44.8102 35.6452 44.8317 35.6987C44.8922 35.8637 51.0382 51.8972 61.0412 58.9731C61.1001 59.0161 61.14 59.0804 61.1523 59.1523C61.1646 59.2242 61.1485 59.2981 61.1073 59.3583C61.0828 59.3966 61.0497 59.4286 61.0104 59.4516C60.9712 59.4745 60.927 59.4878 60.8817 59.4903Z" fill="#E8F2FF"/>
<path d="M50.5759 64.9317C50.5251 64.9317 50.4751 64.9179 50.4315 64.8917C50.3879 64.8655 50.3522 64.828 50.3283 64.7831C46.9334 58.1804 45.6679 46.5762 44.9911 40.3367C44.9086 39.5774 44.8261 38.8346 44.7491 38.1798C44.4189 42.9448 42.9663 53.7401 36.6388 59.8641C36.5862 59.9152 36.5156 59.9433 36.4423 59.9423C36.369 59.9412 36.2992 59.9112 36.2481 59.8586C36.197 59.8061 36.1689 59.7354 36.1699 59.6622C36.171 59.5889 36.2011 59.519 36.2536 59.468C44.3309 51.6548 44.2979 35.9734 44.2979 35.8084C44.2973 35.7658 44.3065 35.7237 44.3249 35.6853C44.3434 35.647 44.3705 35.6134 44.404 35.5872C44.4376 35.5611 44.4769 35.5431 44.5186 35.5347C44.5603 35.5263 44.6034 35.5277 44.6445 35.5388C44.9967 35.6378 45.0792 36.089 45.5359 40.2652C46.2126 46.4717 47.4672 58.0264 50.818 64.519C50.8351 64.5507 50.8457 64.5855 50.8491 64.6213C50.8526 64.6572 50.8488 64.6934 50.838 64.7277C50.8273 64.7621 50.8097 64.7939 50.7864 64.8214C50.7631 64.8489 50.7346 64.8714 50.7025 64.8877C50.6643 64.912 50.6209 64.927 50.5759 64.9317Z" fill="#E8F2FF"/>
<path d="M48.2486 58.7082C48.2042 58.707 48.1607 58.6954 48.1215 58.6743C48.0824 58.6533 48.0487 58.6235 48.023 58.5872C44.8813 53.9378 39.4341 56.4248 39.379 56.4523C39.3101 56.4796 39.2334 56.4796 39.1645 56.4523C39.0977 56.4246 39.043 56.3738 39.0104 56.3093C37.1066 52.2211 30.9606 52.0725 30.7515 52.067C30.6894 52.0824 30.6238 52.076 30.5658 52.049C30.5077 52.022 30.4607 51.9759 30.4324 51.9185C30.4166 51.8856 30.4075 51.85 30.4056 51.8136C30.4038 51.7772 30.4091 51.7408 30.4214 51.7065C30.4337 51.6723 30.4526 51.6407 30.4772 51.6138C30.5018 51.5869 30.5314 51.5652 30.5645 51.5498C30.8176 51.4288 32.9414 51.5498 34.9663 52.3036C37.0956 53.0739 38.5867 54.2679 39.401 55.8526C40.5015 55.4124 45.2224 53.9213 48.2376 57.9379C48.9914 56.8375 51.605 53.7397 56.436 55.1868C56.524 54.4055 56.8871 52.5402 58.3782 51.4673C59.6107 50.5814 61.3054 50.4549 63.4128 51.0986C63.4857 51.1198 63.5473 51.1691 63.5839 51.2356C63.6206 51.3022 63.6293 51.3806 63.6081 51.4535C63.5869 51.5265 63.5377 51.5881 63.4711 51.6247C63.4046 51.6613 63.3262 51.67 63.2532 51.6489C61.3219 51.0546 59.7923 51.1537 58.7029 51.935C57.0522 53.129 56.9587 55.561 56.9587 55.583C56.9562 55.6263 56.944 55.6686 56.923 55.7067C56.9021 55.7448 56.8729 55.7777 56.8376 55.8031C56.8027 55.8272 56.7626 55.8428 56.7205 55.8486C56.6784 55.8543 56.6356 55.85 56.5955 55.8361C51.0218 53.9708 48.5953 58.4001 48.4962 58.5872C48.4742 58.6289 48.4419 58.6644 48.4025 58.6904C48.3631 58.7164 48.3177 58.732 48.2706 58.7357L48.2486 58.7082Z" fill="#E8F2FF"/>
<path d="M46.5656 50.5712C46.5275 50.5708 46.4899 50.5628 46.455 50.5477C46.42 50.5326 46.3884 50.5107 46.362 50.4832C44.9315 48.9095 42.5105 49.9605 42.5105 49.9715C42.4757 49.9863 42.4383 49.9939 42.4004 49.9939C42.3626 49.9939 42.3252 49.9863 42.2904 49.9715C42.2549 49.9567 42.2232 49.9342 42.1975 49.9057C42.1718 49.8771 42.1528 49.8432 42.1418 49.8064C41.1734 47.0058 37.4429 47.2093 37.4044 47.2148C37.3683 47.2174 37.332 47.2128 37.2977 47.2013C37.2633 47.1898 37.2316 47.1716 37.2042 47.1479C37.1769 47.1241 37.1545 47.0952 37.1384 47.0628C37.1222 47.0304 37.1126 46.9951 37.11 46.959C37.1075 46.9229 37.1121 46.8866 37.1236 46.8522C37.1351 46.8179 37.1533 46.7862 37.177 46.7588C37.2008 46.7315 37.2297 46.7091 37.2621 46.6929C37.2945 46.6768 37.3298 46.6672 37.3659 46.6646C37.4099 46.6646 41.322 46.439 42.56 49.3607C43.2533 49.1131 45.1461 48.6234 46.5381 49.8779C46.9508 49.3277 47.9797 48.1942 49.2892 48.0347C49.9885 47.961 50.6894 48.1579 51.248 48.5849C51.3746 47.8971 51.7212 46.6921 52.6181 46.1474C52.9492 45.9711 53.3186 45.8789 53.6938 45.8789C54.0689 45.8789 54.4383 45.9711 54.7695 46.1474C54.8373 46.1759 54.8911 46.2301 54.9189 46.2982C54.9468 46.3663 54.9465 46.4427 54.918 46.5106C54.8896 46.5784 54.8353 46.6322 54.7672 46.6601C54.6991 46.6879 54.6227 46.6876 54.5549 46.6591C54.3007 46.5242 54.0173 46.4537 53.7295 46.4537C53.4418 46.4537 53.1584 46.5242 52.9042 46.6591C51.8863 47.2809 51.7267 49.1571 51.7212 49.1791C51.7181 49.23 51.7004 49.2789 51.6701 49.3199C51.6398 49.3609 51.5983 49.3923 51.5507 49.4102C51.5027 49.4294 51.4502 49.4345 51.3995 49.4247C51.3488 49.4149 51.3019 49.3908 51.2645 49.3552C51.0228 49.0977 50.7261 48.8981 50.3964 48.7714C50.0668 48.6447 49.7127 48.5941 49.3608 48.6234C47.9082 48.7995 46.7967 50.4777 46.7857 50.4942C46.7634 50.5298 46.7326 50.5595 46.6962 50.5806C46.6597 50.6017 46.6187 50.6136 46.5766 50.6152L46.5656 50.5712Z" fill="#E8F2FF"/>
<path d="M45.712 44.3314C45.6739 44.3296 45.6366 44.3198 45.6025 44.3027C45.5684 44.2857 45.5382 44.2617 45.5139 44.2324C45.327 44.0027 45.0594 43.8532 44.7658 43.8143C44.4723 43.7754 44.175 43.8502 43.9347 44.0233C43.8968 44.0503 43.8526 44.067 43.8063 44.0718C43.76 44.0767 43.7133 44.0694 43.6706 44.0508C43.6262 44.0319 43.5876 44.0015 43.5586 43.9629C43.5296 43.9243 43.5113 43.8787 43.5056 43.8307C43.4967 43.6679 43.4528 43.5088 43.3768 43.3645C43.3008 43.2202 43.1946 43.0939 43.0654 42.9944C42.5457 42.7138 41.9441 42.6243 41.3652 42.7413C41.3298 42.7485 41.2933 42.7487 41.2578 42.7418C41.2224 42.735 41.1886 42.7212 41.1584 42.7013C41.1283 42.6813 41.1024 42.6557 41.0821 42.6257C41.0619 42.5958 41.0478 42.5621 41.0406 42.5267C41.0276 42.4546 41.0434 42.3802 41.0845 42.3196C41.1256 42.2589 41.1888 42.2167 41.2607 42.2021C41.9873 42.0581 42.7414 42.1812 43.3845 42.5487C43.6697 42.7649 43.8734 43.0714 43.9622 43.4181C44.253 43.2909 44.5742 43.2503 44.8875 43.3011C45.2007 43.3518 45.4927 43.4918 45.7285 43.7042C46.0612 43.4135 46.4738 43.2297 46.9124 43.1767C47.3511 43.1237 47.7955 43.204 48.188 43.4071C48.2245 43.1703 48.3087 42.9433 48.4354 42.74C48.5621 42.5367 48.7288 42.3612 48.9253 42.2241C49.1438 42.1235 49.385 42.0823 49.6245 42.1045C49.864 42.1267 50.0935 42.2116 50.2898 42.3506C50.3256 42.3654 50.3579 42.3876 50.3846 42.4157C50.4112 42.4438 50.4316 42.4773 50.4445 42.5138C50.4573 42.5504 50.4623 42.5892 50.4591 42.6278C50.4558 42.6664 50.4445 42.7039 50.4258 42.7379C50.4071 42.7718 50.3814 42.8014 50.3505 42.8247C50.3195 42.848 50.284 42.8645 50.2462 42.8732C50.2085 42.8818 50.1693 42.8823 50.1313 42.8748C50.0933 42.8672 50.0573 42.8517 50.0257 42.8293C49.9087 42.7406 49.7715 42.6826 49.6264 42.6605C49.4813 42.6384 49.3329 42.6529 49.1949 42.7028C48.8042 42.9174 48.6832 43.6822 48.6446 43.9298C48.6425 43.983 48.6246 44.0344 48.5933 44.0775C48.562 44.1206 48.5186 44.1534 48.4686 44.1719C48.4195 44.1923 48.3654 44.1974 48.3134 44.1866C48.2614 44.1758 48.2138 44.1496 48.177 44.1113C47.148 43.0989 45.9321 44.2324 45.8825 44.2819C45.8324 44.3161 45.7726 44.3334 45.712 44.3314Z" fill="#E8F2FF"/>
<path d="M74.7916 54.9728H74.7476C53.52 51.5119 44.4248 36.1056 44.3368 35.9516C44.3142 35.9204 44.2983 35.8849 44.2903 35.8473C44.2822 35.8096 44.2822 35.7707 44.2901 35.733C44.298 35.6954 44.3138 35.6598 44.3363 35.6286C44.3589 35.5974 44.3877 35.5713 44.421 35.5519C44.4543 35.5326 44.4913 35.5204 44.5295 35.5163C44.5678 35.5121 44.6065 35.516 44.6432 35.5278C44.6798 35.5395 44.7136 35.5588 44.7424 35.5844C44.7711 35.61 44.7941 35.6414 44.81 35.6765C44.898 35.8305 53.8502 51.0112 74.8357 54.4446C74.9086 54.4504 74.9763 54.485 75.0237 54.5407C75.0712 54.5964 75.0946 54.6687 75.0888 54.7417C75.0829 54.8147 75.0483 54.8823 74.9926 54.9298C74.9369 54.9772 74.8646 55.0006 74.7916 54.9948V54.9728Z" fill="#E8F2FF"/>
<path d="M10.2725 44.7549L12.6219 73.0363L49.773 93.8183V65.0746L10.2725 44.7549Z" fill="#1F83FC"/>
<path d="M11.417 58.5055L47.1485 77.5322C47.1485 77.5322 46.6368 70.1757 49.773 65.0696L16.5616 49.2617L11.417 58.5055Z" fill="#0372E2"/>
<path d="M10.278 44.7549C8.38425 46.1121 6.83148 47.8905 5.74204 49.9501C4.6526 52.0096 4.05626 54.294 4 56.6232L44.4689 77.9829C44.6295 73.1909 46.5127 68.6176 49.773 65.1021L10.278 44.7549Z" fill="#BAD7FF"/>
<path d="M84.6961 46.7197C84.6961 46.7197 89.9727 49.7129 89.8187 58.9952L55.4682 77.8018C55.6168 68.5196 49.7734 65.0752 49.7734 65.0752L84.6961 46.7197Z" fill="#BAD7FF"/>
<path d="M49.8066 93.9999C49.783 94.0006 49.7595 93.9966 49.7375 93.9881C49.7155 93.9796 49.6954 93.9667 49.6785 93.9503C49.6616 93.9339 49.6481 93.9142 49.6389 93.8925C49.6297 93.8708 49.625 93.8474 49.625 93.8238V65.2562C49.625 65.2326 49.6297 65.2093 49.6389 65.1876C49.6481 65.1658 49.6616 65.1462 49.6785 65.1297C49.6954 65.1133 49.7155 65.1005 49.7375 65.092C49.7595 65.0834 49.783 65.0794 49.8066 65.0802C49.8533 65.0802 49.8981 65.0987 49.9311 65.1317C49.9641 65.1648 49.9826 65.2095 49.9826 65.2562V93.8238C49.9826 93.8705 49.9641 93.9153 49.9311 93.9483C49.8981 93.9813 49.8533 93.9999 49.8066 93.9999Z" fill="#0044A5"/>
<path d="M40.2705 49.0688C40.2428 49.0686 40.2155 49.062 40.1907 49.0496C40.1659 49.0372 40.1443 49.0193 40.1275 48.9972L39.0601 47.5336L37.3599 46.7688L36.8096 47.7207C36.8002 47.7449 36.7856 47.7668 36.767 47.7848C36.7484 47.8029 36.7261 47.8168 36.7016 47.8255C36.6772 47.8343 36.6511 47.8377 36.6253 47.8355C36.5994 47.8333 36.5743 47.8256 36.5517 47.8129C36.529 47.8002 36.5094 47.7827 36.494 47.7618C36.4787 47.7408 36.468 47.7169 36.4628 47.6914C36.4575 47.666 36.4577 47.6398 36.4635 47.6144C36.4692 47.5891 36.4803 47.5653 36.496 47.5446L37.1178 46.4442C37.1379 46.4044 37.1727 46.3741 37.2149 46.3597C37.257 46.3453 37.3031 46.348 37.3434 46.3672L39.2416 47.22C39.2689 47.2334 39.2933 47.2521 39.3132 47.275L40.4136 48.7716C40.4419 48.8104 40.4538 48.8587 40.4465 48.9061C40.4393 48.9536 40.4136 48.9962 40.3751 49.0247C40.3454 49.0496 40.309 49.0649 40.2705 49.0688Z" fill="#3F4445"/>
<path d="M40.6507 48.7773C40.6087 48.7767 40.5682 48.7616 40.5361 48.7345C40.504 48.7074 40.4823 48.67 40.4747 48.6287L40.1831 46.9781L39.6053 46.6479L39.5173 46.9946C39.5044 47.0402 39.4742 47.0791 39.433 47.1027C39.3919 47.1264 39.3431 47.133 39.2972 47.1211C39.2748 47.1154 39.2537 47.1052 39.2353 47.0913C39.2168 47.0774 39.2012 47.06 39.1894 47.0401C39.1777 47.0201 39.17 46.9981 39.1668 46.9752C39.1635 46.9523 39.1649 46.9289 39.1706 46.9065L39.3192 46.3563C39.3249 46.3297 39.3368 46.3048 39.354 46.2838C39.3713 46.2627 39.3933 46.2461 39.4182 46.2353C39.4431 46.2231 39.4704 46.2168 39.498 46.2168C39.5257 46.2168 39.553 46.2231 39.5778 46.2353L40.4362 46.7195C40.4586 46.7322 40.478 46.7496 40.4932 46.7705C40.5084 46.7914 40.519 46.8152 40.5242 46.8405L40.8268 48.5792C40.8349 48.6258 40.8245 48.6738 40.7978 48.7128C40.7711 48.7519 40.7301 48.779 40.6838 48.7883L40.6507 48.7773Z" fill="#3F4445"/>
<path d="M41.9657 50.2073C41.4155 51.3077 40.5792 51.6379 39.9684 51.2197C39.3577 50.8015 38.923 50.2623 39.5833 49.2389C39.8601 48.843 40.2331 48.5242 40.6673 48.3124C41.1015 48.1006 41.5824 48.0029 42.0648 48.0284C42.8736 48.1439 42.4774 49.1013 41.9657 50.2073Z" fill="#677072"/>
<path d="M41.2716 50.1253C41.6403 50.7801 41.1781 53.0195 39.621 53.9273C38.0638 54.8352 36.2151 54.6041 35.5603 53.4101C34.9056 52.2162 35.6594 50.516 37.244 49.6081C38.8286 48.7002 40.8645 49.41 41.2716 50.1253Z" fill="#3F4445"/>
<path d="M42.0643 49.3109C42.0397 49.3111 42.0153 49.3064 41.9926 49.2969C41.9699 49.2874 41.9494 49.2735 41.9322 49.2558C41.8993 49.2219 41.8809 49.1765 41.8809 49.1293C41.8809 49.082 41.8993 49.0366 41.9322 49.0027C43.4343 47.5887 43.4784 47.5832 43.5829 47.5887C43.6874 47.5942 45.052 47.4676 45.9599 47.3851C45.9995 47.3803 46.0397 47.3891 46.0737 47.4101C46.1076 47.4311 46.1335 47.463 46.1469 47.5006L46.4936 48.491C46.5095 48.5363 46.5068 48.586 46.4862 48.6293C46.4656 48.6726 46.4287 48.7059 46.3835 48.7221C46.3615 48.7299 46.3382 48.7332 46.3148 48.7319C46.2915 48.7306 46.2687 48.7246 46.2477 48.7144C46.2267 48.7041 46.2079 48.6898 46.1925 48.6722C46.1771 48.6547 46.1654 48.6342 46.1579 48.6121L45.8553 47.7537C45.063 47.8253 43.9075 47.9243 43.6544 47.9408C43.4949 48.0619 42.8071 48.6891 42.1963 49.2613C42.1791 49.2785 42.1584 49.2918 42.1357 49.3004C42.1129 49.3089 42.0886 49.3125 42.0643 49.3109Z" fill="#3F4445"/>
<path d="M46.917 52.0673C46.8867 52.0663 46.8571 52.0583 46.8304 52.044C46.8037 52.0297 46.7806 52.0094 46.763 51.9848L44.8262 49.0961C43.5772 49.0961 43.1755 49.0961 43.0545 49.0961C42.9059 49.1952 42.3447 49.6464 41.844 50.048C41.8275 50.065 41.8079 50.0785 41.7861 50.0877C41.7644 50.0969 41.741 50.1017 41.7174 50.1017C41.6938 50.1017 41.6704 50.0969 41.6487 50.0877C41.6269 50.0785 41.6073 50.065 41.5909 50.048C41.5613 50.0107 41.5477 49.9632 41.5528 49.9158C41.558 49.8685 41.5815 49.8251 41.6184 49.7949C42.9059 48.7385 42.9444 48.744 43.0434 48.7605C43.1425 48.777 44.2374 48.7605 44.9252 48.7605C44.9548 48.7611 44.9838 48.7689 45.0097 48.7833C45.0356 48.7977 45.0576 48.8182 45.0738 48.843L47.0381 51.8087C47.0557 51.8359 47.0658 51.8673 47.0673 51.8996C47.0688 51.932 47.0615 51.9641 47.0464 51.9928C47.0312 52.0214 47.0087 52.0454 46.9811 52.0624C46.9535 52.0794 46.9219 52.0887 46.8895 52.0893L46.917 52.0673Z" fill="#3F4445"/>
<path d="M37.2227 17.7225L42.3342 15.8848L42.7359 24.3307L40.8706 24.7213L37.2227 17.7225Z" fill="#1F83FC"/>
<path d="M52.0561 15.8467L51.627 24.4687L53.6298 25.0684L57.5859 17.2222L52.0561 15.8467Z" fill="#1F83FC"/>
<path d="M59.248 29.2217L60.6016 31.5052L67.9911 29.2382L65.6086 24.8145L59.248 29.2217Z" fill="#1F83FC"/>
</svg>
