<svg width="16" height="16" viewBox="0 0 16 16" fill="none" xmlns="http://www.w3.org/2000/svg">
<path fill-rule="evenodd" clip-rule="evenodd" d="M0.666992 11.6668V7.92305C0.666992 7.00627 1.08619 6.13982 1.80502 5.57081L7.17278 1.32183C7.65771 0.937971 8.34294 0.937972 8.82787 1.32183L14.1956 5.57081C14.9145 6.13982 15.3337 7.00628 15.3337 7.92306V11.6668C15.3337 13.3236 13.9905 14.6668 12.3337 14.6668H3.66699C2.01014 14.6668 0.666992 13.3236 0.666992 11.6668ZM4.00033 11.5001C3.72418 11.5001 3.50033 11.724 3.50033 12.0001C3.50033 12.2762 3.72418 12.5001 4.00033 12.5001H12.0003C12.2765 12.5001 12.5003 12.2762 12.5003 12.0001C12.5003 11.724 12.2765 11.5001 12.0003 11.5001H4.00033Z" fill="#0B0C0D"/>
</svg>
