<svg width="20" height="20" viewBox="0 0 20 20" fill="none" xmlns="http://www.w3.org/2000/svg">
<path fill-rule="evenodd" clip-rule="evenodd" d="M6.2584 14.3333H2.64946C2.58113 14.3333 2.51895 14.3189 2.46846 14.297C2.45609 14.2916 2.44512 14.2861 2.43546 14.2807C3.06051 12.6524 4.63892 11.5 6.48279 11.5C6.81941 11.5 7.14717 11.5384 7.46191 11.6111C7.79476 11.1634 8.17922 10.7563 8.60651 10.3986C7.94839 10.1413 7.23209 10 6.48279 10C3.94933 10 1.79309 11.6151 0.987475 13.8717C0.61611 14.912 1.54489 15.8333 2.64946 15.8333H6.63217C6.35955 15.4045 6.21197 14.8862 6.2584 14.3333Z" fill="#677072"/>
<path d="M8.54436 14.1239C9.24676 12.1563 11.1268 10.75 13.3333 10.75C15.5399 10.75 17.4199 12.1563 18.1223 14.1239C18.2055 14.3571 18.1535 14.563 17.9933 14.7413C17.819 14.9353 17.5173 15.0833 17.1667 15.0833H9.5C9.14935 15.0833 8.84767 14.9353 8.67338 14.7413C8.51316 14.563 8.46112 14.3571 8.54436 14.1239Z" stroke="#677072" stroke-width="1.5" stroke-linejoin="round"/>
<path d="M7.99967 7.08333C7.99967 7.81971 7.40272 8.41667 6.66634 8.41667C5.92996 8.41667 5.33301 7.81971 5.33301 7.08333C5.33301 6.34695 5.92996 5.75 6.66634 5.75C7.40272 5.75 7.99967 6.34695 7.99967 7.08333Z" stroke="#677072" stroke-width="1.5"/>
<path d="M15.083 6.6665C15.083 7.633 14.2995 8.4165 13.333 8.4165C12.3665 8.4165 11.583 7.633 11.583 6.6665C11.583 5.70001 12.3665 4.9165 13.333 4.9165C14.2995 4.9165 15.083 5.70001 15.083 6.6665Z" stroke="#677072" stroke-width="1.5"/>
</svg>
