<svg width="20" height="20" viewBox="0 0 20 20" fill="none" xmlns="http://www.w3.org/2000/svg">
<circle cx="9.99967" cy="9.99992" r="8.41667" stroke="#677072" stroke-width="1.5"/>
<path d="M12.8413 11.0445C12.5405 10.7467 12.1659 10.7467 11.8651 11.0445C11.6379 11.2717 11.4077 11.4958 11.1836 11.7261C11.1222 11.7906 11.07 11.8029 10.9933 11.7599C10.8459 11.68 10.6893 11.6156 10.5451 11.5265C9.88503 11.1121 9.32939 10.5748 8.83821 9.97302C8.59569 9.67214 8.37773 9.35284 8.22731 8.99363C8.19661 8.91994 8.19968 8.87389 8.26108 8.81556C8.48825 8.5945 8.71235 8.36731 8.93645 8.14319C9.24957 7.83003 9.24957 7.4616 8.93338 7.1423C8.75533 6.96423 8.57727 6.78309 8.39922 6.60809C8.21503 6.42388 8.03391 6.23967 7.84665 6.05546C7.5458 5.76072 7.17128 5.75765 6.87043 6.05546C6.64327 6.28265 6.41917 6.51599 6.18893 6.73704C5.97404 6.94274 5.86352 7.1945 5.83896 7.48924C5.8052 7.96512 5.91878 8.41643 6.08455 8.85854C6.42224 9.76732 6.93797 10.5717 7.55808 11.3147C8.39922 12.3156 9.40614 13.1077 10.5819 13.6787C11.1099 13.9366 11.6594 14.1331 12.258 14.1638C12.6694 14.1853 13.0255 14.084 13.311 13.7647C13.5075 13.5467 13.7254 13.3472 13.9342 13.1384C14.2412 12.8283 14.2442 12.4537 13.9403 12.1467C13.5719 11.7721 13.2066 11.4099 12.8413 11.0445Z" fill="#677072"/>
</svg>
