<svg width="16" height="16" viewBox="0 0 16 16" fill="none" xmlns="http://www.w3.org/2000/svg">
<path fill-rule="evenodd" clip-rule="evenodd" d="M12.9931 9.3335C12.4052 11.5407 10.3925 13.1668 8.00011 13.1668C5.60768 13.1668 3.59504 11.5407 3.00712 9.3335H1.4668C2.08449 12.3765 4.77483 14.6668 8.00011 14.6668C11.2254 14.6668 13.9157 12.3765 14.5334 9.3335H12.9931ZM3.00712 6.66683C3.59504 4.45958 5.60768 2.8335 8.00011 2.8335C10.3925 2.8335 12.4052 4.45958 12.9931 6.66683H14.5334C13.9157 3.62384 11.2254 1.3335 8.00011 1.3335C4.77483 1.3335 2.08449 3.62384 1.4668 6.66683H3.00712Z" fill="#004EBC"/>
<path d="M12 5.33317L14 6.6665L15 4.6665" stroke="#004EBC" stroke-width="1.5" stroke-linecap="round" stroke-linejoin="round"/>
<path d="M4 10.6668L2 9.3335L1 11.3335" stroke="#004EBC" stroke-width="1.5" stroke-linecap="round" stroke-linejoin="round"/>
</svg>
