<svg width="24" height="24" viewBox="0 0 24 24" fill="none" xmlns="http://www.w3.org/2000/svg">
<path d="M2 8V5C2 3.34315 3.34315 2 5 2H8" stroke="#00AAE3" stroke-width="1.5" stroke-linecap="round"/>
<path d="M22 8V5C22 3.34315 20.6569 2 19 2H16" stroke="#00AAE3" stroke-width="1.5" stroke-linecap="round"/>
<path d="M22 16V19C22 20.6569 20.6569 22 19 22H16" stroke="#00AAE3" stroke-width="1.5" stroke-linecap="round"/>
<path d="M2 16V19C2 20.6569 3.34315 22 5 22H8" stroke="#00AAE3" stroke-width="1.5" stroke-linecap="round"/>
<mask id="path-5-inside-1_1501_13210" fill="white">
<path fill-rule="evenodd" clip-rule="evenodd" d="M3.73326 12.4155C3.54834 11.6337 4.03217 10.8501 4.81392 10.6652L16.5801 7.88197C17.3619 7.69706 18.1455 8.18089 18.3304 8.96264L18.6502 10.3145C17.9417 10.7706 17.5622 11.6389 17.7672 12.5056C17.9723 13.3723 18.7006 13.9786 19.5383 14.069L19.8581 15.4208C20.043 16.2025 19.5592 16.9862 18.7774 17.1711L7.01119 19.9543C6.22944 20.1392 5.4458 19.6554 5.26088 18.8736L4.94112 17.5218C5.64961 17.0657 6.02911 16.1974 5.8241 15.3307C5.61909 14.464 4.89078 13.8577 4.05302 13.7673L3.73326 12.4155Z"/>
</mask>
<path d="M18.6502 10.3145L19.4622 11.5757L20.3541 11.0015L20.1099 9.96917L18.6502 10.3145ZM19.5383 14.069L20.998 13.7237L20.7539 12.6914L19.6992 12.5776L19.5383 14.069ZM4.94112 17.5218L4.12914 16.2606L3.23723 16.8348L3.4814 17.8671L4.94112 17.5218ZM4.05302 13.7673L2.5933 14.1126L2.83748 15.1449L3.89213 15.2586L4.05302 13.7673ZM4.46864 9.20546C2.8807 9.58107 1.89793 11.1728 2.27354 12.7608L5.19298 12.0702C5.19379 12.0736 5.19445 12.0808 5.19308 12.0888C5.1919 12.0958 5.18967 12.1009 5.18742 12.1045C5.18518 12.1082 5.18162 12.1125 5.17591 12.1166C5.16932 12.1215 5.16262 12.1241 5.15921 12.1249L4.46864 9.20546ZM16.2349 6.42226L4.46864 9.20546L5.15921 12.1249L16.9254 9.34169L16.2349 6.42226ZM19.7902 8.61735C19.4146 7.02942 17.8228 6.04664 16.2349 6.42226L16.9254 9.34169C16.922 9.3425 16.9148 9.34316 16.9068 9.3418C16.8998 9.34061 16.8947 9.33838 16.8911 9.33614C16.8874 9.33389 16.8832 9.33034 16.879 9.32462C16.8742 9.31804 16.8715 9.31134 16.8707 9.30792L19.7902 8.61735ZM20.1099 9.96917L19.7902 8.61735L16.8707 9.30792L17.1905 10.6597L20.1099 9.96917ZM19.227 12.1603C19.1728 11.9315 19.2715 11.6985 19.4622 11.5757L17.8382 9.05325C16.612 9.84271 15.9516 11.3464 16.3075 12.8509L19.227 12.1603ZM19.6992 12.5776C19.4737 12.5533 19.2811 12.3892 19.227 12.1603L16.3075 12.8509C16.6634 14.3554 17.9274 15.4039 19.3774 15.5603L19.6992 12.5776ZM21.3178 15.0755L20.998 13.7237L18.0786 14.4143L18.3983 15.7661L21.3178 15.0755ZM19.1227 18.6308C20.7106 18.2552 21.6934 16.6634 21.3178 15.0755L18.3983 15.7661C18.3975 15.7627 18.3969 15.7555 18.3982 15.7474C18.3994 15.7405 18.4017 15.7354 18.4039 15.7317C18.4062 15.7281 18.4097 15.7238 18.4154 15.7196C18.422 15.7148 18.4287 15.7122 18.4321 15.7114L19.1227 18.6308ZM7.35647 21.414L19.1227 18.6308L18.4321 15.7114L6.6659 18.4946L7.35647 21.414ZM3.80116 19.2189C4.17678 20.8068 5.76854 21.7896 7.35647 21.414L6.6659 18.4946C6.66932 18.4938 6.67648 18.4931 6.68453 18.4945C6.69152 18.4957 6.69661 18.4979 6.70025 18.5001C6.70388 18.5024 6.70816 18.5059 6.71235 18.5116C6.71717 18.5182 6.71979 18.5249 6.7206 18.5283L3.80116 19.2189ZM3.4814 17.8671L3.80116 19.2189L6.7206 18.5283L6.40084 17.1765L3.4814 17.8671ZM4.36438 15.6759C4.41851 15.9048 4.31987 16.1378 4.12914 16.2606L5.75311 18.783C6.97935 17.9936 7.63971 16.4899 7.28382 14.9854L4.36438 15.6759ZM3.89213 15.2586C4.11767 15.283 4.31025 15.4471 4.36438 15.6759L7.28382 14.9854C6.92793 13.4808 5.66389 12.4324 4.21391 12.2759L3.89213 15.2586ZM2.27354 12.7608L2.5933 14.1126L5.51274 13.422L5.19298 12.0702L2.27354 12.7608Z" fill="#00AAE3" mask="url(#path-5-inside-1_1501_13210)"/>
<path d="M12.95 5.22237C12.8846 5.80496 13.0832 6.42646 13.6582 6.84962C13.7114 6.89265 13.7662 6.93215 13.8223 6.96816L10.8048 7.74516L12.95 5.22237Z" stroke="#00AAE3" stroke-width="2" stroke-linecap="round" stroke-linejoin="round"/>
<path d="M13 10L15 17" stroke="#00AAE3" stroke-width="1.5" stroke-linecap="round"/>
</svg>
