<svg width="24" height="24" viewBox="0 0 24 24" fill="none" xmlns="http://www.w3.org/2000/svg">
<path fill-rule="evenodd" clip-rule="evenodd" d="M4.00005 4.5H18C18.8285 4.5 19.5 5.17157 19.5 6V11.3135C20.0335 11.4858 20.5368 11.7253 21 12.0218V6C21 4.34315 19.6569 3 18 3H4.00005C2.3432 3 1.00005 4.34314 1.00005 6L1.00003 20C1.00003 21.6569 2.34317 23 4.00003 23H14.0343C13.3988 22.5987 12.8376 22.0902 12.3762 21.5H4.00003C3.1716 21.5 2.50003 20.8284 2.50003 20L2.50005 6C2.50005 5.17157 3.17162 4.5 4.00005 4.5Z" fill="#677072"/>
<path d="M6.5 2V6" stroke="#677072" stroke-width="1.5" stroke-linecap="round"/>
<path d="M15.5 2V6" stroke="#677072" stroke-width="1.5" stroke-linecap="round"/>
<path d="M2 9H20" stroke="#677072" stroke-width="1.5"/>
<circle cx="17.5" cy="17.5" r="4.75" stroke="#677072" stroke-width="1.5"/>
<path d="M17.5 15.5V18H19.5" stroke="#677072" stroke-width="1.5" stroke-linecap="round" stroke-linejoin="round"/>
<path fill-rule="evenodd" clip-rule="evenodd" d="M4 12C4 11.4477 4.44772 11 5 11H6C6.55228 11 7 11.4477 7 12V13C7 13.5523 6.55228 14 6 14H5C4.44772 14 4 13.5523 4 13V12ZM4 16C4 15.4477 4.44772 15 5 15H6C6.55228 15 7 15.4477 7 16V17C7 17.5523 6.55228 18 6 18H5C4.44772 18 4 17.5523 4 17V16ZM9 11C8.44772 11 8 11.4477 8 12V13C8 13.5523 8.44772 14 9 14H10C10.5523 14 11 13.5523 11 13V12C11 11.4477 10.5523 11 10 11H9Z" fill="#677072"/>
</svg>
