<svg width="24" height="24" viewBox="0 0 24 24" fill="none" xmlns="http://www.w3.org/2000/svg">
<path fill-rule="evenodd" clip-rule="evenodd" d="M10.2436 4.21905L2.41938 18.5635C1.32895 20.5627 2.77589 23.0001 5.05307 23.0001H18.9458C21.223 23.0001 22.6699 20.5627 21.5795 18.5635L13.7552 4.21905C12.9972 2.82933 11.0017 2.82933 10.2436 4.21905ZM11.9994 17.0001C11.4472 17.0001 10.9994 16.5524 10.9994 16.0001V10.0001C10.9994 9.44782 11.4472 9.0001 11.9994 9.0001C12.5517 9.0001 12.9994 9.44782 12.9994 10.0001V16.0001C12.9994 16.5524 12.5517 17.0001 11.9994 17.0001ZM11.9994 18.0001C11.4472 18.0001 10.9994 18.4478 10.9994 19.0001C10.9994 19.5524 11.4472 20.0001 11.9994 20.0001C12.5517 20.0001 12.9994 19.5524 12.9994 19.0001C12.9994 18.4478 12.5517 18.0001 11.9994 18.0001Z" fill="#FF2C00"/>
</svg>
