<svg width="200" height="150" viewBox="0 0 200 150" fill="none" xmlns="http://www.w3.org/2000/svg">
<path d="M104.605 131.364C110.822 132.017 117.099 131.831 123.267 130.809C127.798 130.014 132.496 128.496 135.881 125.279C138.498 122.715 140.084 119.281 140.339 115.627C140.718 111.417 139.813 107.157 138.522 103.173C136.893 98.3443 134.814 93.679 132.314 89.2384C129.665 84.3868 126.703 79.7103 123.559 75.1359C120.56 70.7585 117.416 66.4394 114.198 62.1933C111.557 58.6476 108.821 55.2041 106.1 51.724L104.641 49.8855C96.6887 39.5767 85.074 32.2373 74.1305 31.1429C63.0119 30.0413 51.2731 36.3156 47.6472 51.1987C44.8675 62.6165 46.9176 74.2093 49.2157 83.8688C52.947 99.4627 62.5478 113.017 76.0201 121.712C82.7493 126.05 90.265 129.024 98.1406 130.466C100.256 130.853 102.423 131.196 104.619 131.378" fill="#E8F2FF"/>
<path d="M123.355 107.696C125.47 105.231 134.867 93.6377 137.785 79.1558C139.245 71.9112 138.063 68.5624 136.005 67.9569C133.992 67.2273 131.095 69.2628 128.104 75.9821C122.122 89.4865 123.063 104.443 123.355 107.696Z" fill="#BAD7FF"/>
<path d="M123.354 107.696L136.005 67.9568" stroke="#4794FF" stroke-width="0.182392" stroke-miterlimit="10"/>
<path d="M128.63 74.946L130.541 85.2548" stroke="#4794FF" stroke-width="0.182392" stroke-miterlimit="10"/>
<path d="M69.075 130.145L68.1047 130.277C65.3532 130.67 62.5734 130.831 59.7949 130.758C58.9048 130.758 58.0512 130.671 57.2268 130.583C47.7716 129.605 42.4895 125.221 42.0299 119.931C41.3806 111.906 51.5143 102.881 51.5143 102.881C50.5061 99.6549 50.4176 96.2112 51.259 92.9373C52.6451 87.4656 56.2346 82.1835 56.2346 82.1835L59.6636 79.9072C63.1112 80.2967 66.4247 81.4669 69.3522 83.3289C70.7331 84.1701 72.026 85.1478 73.2117 86.2472C73.3649 86.3785 73.5035 86.5171 73.6494 86.6557C76.7209 89.6543 79.5589 93.9514 81.2734 100.197C86.6138 119.581 86.8035 127.519 69.075 130.109" fill="#6DCDB8"/>
<path d="M66.8938 87.2831C64.7561 93.7106 67.3972 103.436 65.8432 107.908C64.0849 112.964 57.8179 117.035 55.2717 120.413C52.0835 124.652 52.1054 129.109 57.1832 130.561C58.0076 130.649 58.8612 130.707 59.7513 130.736C60.189 130.736 60.6341 130.736 61.0937 130.736C63.4248 130.724 65.7524 130.556 68.0611 130.233L69.0314 130.101C70.8257 129.85 72.6021 129.484 74.35 129.007C73.5708 128.104 73.0647 126.999 72.8908 125.819L66.8792 87.2539" fill="#41B29C"/>
<path d="M60.5465 79.754C60.51 79.8197 60.4881 79.8927 60.4444 79.9583C59.5032 81.9282 57.1832 82.5702 55.8335 82.7745C55.4905 82.8294 55.1446 82.8635 54.7975 82.8766C54.6286 82.5406 54.4151 82.2289 54.1628 81.95C52.3389 79.8708 48.6326 79.185 46.9255 78.9807C46.5699 78.9384 46.2337 78.7959 45.956 78.5699C45.6783 78.3438 45.4705 78.0435 45.3569 77.704C45.3018 77.5353 45.2627 77.3619 45.2402 77.186C45.0869 76.1865 45.3277 74.8003 46.7868 73.1442C47.9336 71.6872 49.5284 70.6487 51.3248 70.1894C51.6055 70.1325 51.8928 70.1153 52.1783 70.1383C52.6147 70.1663 53.0412 70.2803 53.4332 70.4739C56.7381 72.0936 59.0801 76.5075 60.0504 78.6086C60.3714 79.3017 60.5392 79.7467 60.5392 79.7467" fill="#6DCDB8"/>
<path d="M46.5756 77.434C46.6725 77.4455 46.7704 77.4455 46.8674 77.434C47.8274 77.4036 48.7577 77.0943 49.5449 76.544C50.7195 75.7633 52.0327 74.3553 53.0906 71.6996C53.1089 71.6461 53.1072 71.5878 53.0857 71.5354C53.0642 71.4831 53.0245 71.4403 52.9739 71.4151C52.9148 71.391 52.8487 71.3913 52.7899 71.4159C52.731 71.4405 52.6844 71.4875 52.6602 71.5464C51.6169 74.0999 50.3693 75.4277 49.2823 76.1573C48.5734 76.6567 47.734 76.9382 46.8674 76.9671H46.6485C46.5868 76.9586 46.5241 76.9744 46.4738 77.0111C46.4235 77.0479 46.3893 77.1027 46.3786 77.1641C46.3723 77.1949 46.3725 77.2267 46.3792 77.2574C46.3859 77.2881 46.399 77.3171 46.4175 77.3425C46.436 77.3679 46.4597 77.3892 46.4869 77.4049C46.5141 77.4207 46.5443 77.4306 46.5756 77.434Z" fill="#008972"/>
<path d="M55.0751 82.5191C57.0569 81.9644 58.8761 80.9409 60.379 79.5352C60.4679 79.4495 60.5735 79.3831 60.6892 79.3401C60.805 79.2971 60.9283 79.2785 61.0516 79.2853C61.1748 79.2922 61.2953 79.3244 61.4056 79.3799C61.5158 79.4355 61.6134 79.5132 61.6923 79.6081C61.8391 79.7748 61.9306 79.9829 61.9542 80.2037C61.9777 80.4246 61.9321 80.6473 61.8236 80.8411C60.4527 83.083 58.3094 84.7463 55.7974 85.5177C55.5774 85.5758 55.3469 85.5817 55.1243 85.5349C54.9017 85.4881 54.6931 85.3899 54.5152 85.2481C54.3373 85.1064 54.195 84.925 54.0996 84.7184C54.0043 84.5119 53.9586 84.2859 53.9661 84.0585C53.9472 83.7138 54.0469 83.373 54.2487 83.0929C54.4505 82.8128 54.7421 82.6103 55.0751 82.5191Z" fill="#00997F"/>
<path d="M51.6895 102.641C52.2388 103.799 52.5502 105.055 52.6053 106.336C52.6605 107.617 52.4582 108.896 52.0105 110.097" stroke="#008972" stroke-width="0.23711" stroke-linecap="round" stroke-linejoin="round"/>
<path d="M51.9302 70.1311C51.727 70.1328 51.5244 70.1523 51.3247 70.1895C49.5284 70.6488 47.9335 71.6873 46.7868 73.1442C45.8437 74.082 45.2778 75.3333 45.1963 76.6607C45.1958 76.8368 45.2104 77.0125 45.2401 77.186C45.5285 77.2417 45.8218 77.2685 46.1156 77.2663H46.4074C46.3999 77.2351 46.3999 77.2026 46.4074 77.1714C46.4146 77.1154 46.4426 77.064 46.4858 77.0276C46.5291 76.9911 46.5844 76.9722 46.6408 76.9745H46.8962C47.7536 76.9378 48.5821 76.654 49.2819 76.1573C50.3689 75.4278 51.6165 74.0854 52.6525 71.5319C52.6696 71.4895 52.6988 71.4531 52.7364 71.4272C52.774 71.4012 52.8184 71.3869 52.8641 71.386C52.9109 71.1308 52.8692 70.8673 52.7458 70.639C52.6224 70.4108 52.4247 70.2316 52.1856 70.1311H51.9302Z" fill="#41B29C"/>
<path d="M52.8645 71.4004C52.8188 71.4013 52.7744 71.4157 52.7368 71.4416C52.6992 71.4675 52.67 71.5039 52.6529 71.5463C51.6169 74.0998 50.3694 75.4276 49.2823 76.1572C48.5734 76.6566 47.7341 76.9381 46.8674 76.967H46.6121C46.5556 76.9647 46.5003 76.9837 46.4571 77.0201C46.4139 77.0566 46.3859 77.1079 46.3786 77.164C46.3712 77.1951 46.3712 77.2276 46.3786 77.2588C46.5245 77.2588 46.6778 77.2588 46.8237 77.215C48.6739 76.8443 50.323 75.8055 51.4564 74.2968C51.788 73.8869 52.0811 73.4473 52.3319 72.9836C52.5435 72.6047 52.7053 72.2001 52.8134 71.7798C52.8398 71.6547 52.8568 71.5279 52.8645 71.4004Z" fill="#008972"/>
<path d="M130.257 57.7356L119.634 125.848C119.415 127.313 118.678 128.65 117.558 129.619C116.438 130.588 115.008 131.124 113.528 131.13H79.0117C77.5309 131.124 76.1011 130.588 74.9811 129.619C73.8611 128.65 73.1248 127.313 72.9053 125.848L62.29 57.7356H130.257Z" fill="#4794FF"/>
<path d="M82.8856 100.962C84.622 110.921 84.1477 119.34 81.8277 119.749C79.5077 120.157 76.2246 112.453 74.4883 102.458C72.7519 92.463 73.2188 84.0803 75.5388 83.6644C77.8589 83.2486 81.1492 90.9893 82.8856 100.962Z" fill="#0058D4"/>
<path d="M100.396 104.552C100.396 114.671 98.4844 122.85 96.1352 122.85C93.786 122.85 91.8672 114.649 91.8672 104.53C91.8672 94.411 93.7787 86.2107 96.1352 86.2107C98.4917 86.2107 100.396 94.4329 100.396 104.552Z" fill="#0058D4"/>
<path d="M109.654 100.963C107.917 110.921 108.391 119.34 110.711 119.749C113.031 120.157 116.322 112.453 118.058 102.458C119.795 92.4631 119.32 84.0803 117 83.6645C114.68 83.2486 111.39 90.9602 109.654 100.963Z" fill="#0058D4"/>
<path d="M64.8066 71.2764C69.9136 75.5589 82.0609 78.572 96.2729 78.572C110.485 78.572 122.654 75.5589 127.732 71.2764" stroke="#0044A5" stroke-width="0.23711" stroke-linecap="round" stroke-linejoin="round"/>
<path d="M96.2733 69.4671C115.042 69.4671 130.257 64.2147 130.257 57.7356C130.257 51.2565 115.042 46.0042 96.2733 46.0042C77.5049 46.0042 62.29 51.2565 62.29 57.7356C62.29 64.2147 77.5049 69.4671 96.2733 69.4671Z" fill="#004EBC"/>
<path d="M124.288 132.254L124.157 132.56C124.024 132.842 123.868 133.113 123.69 133.37C122.842 134.526 121.672 135.406 120.327 135.901C112.513 139.119 96.9808 138.003 90.5679 136.719C83.5713 135.332 80.5947 131.612 81.5212 126.796C82.4478 121.981 87.0513 116.283 94.1281 116.196H95.1277C95.6311 116.196 96.1199 116.196 96.5868 116.247H97.1121C100.382 116.383 103.634 116.806 106.83 117.509C106.83 117.509 116.694 120.077 120.305 122.295C122.895 123.878 125.689 128.555 124.267 132.232" fill="#6DCDB8"/>
<path d="M95.1279 116.203C103.151 124.112 112.942 129.996 123.691 133.37C123.868 133.113 124.024 132.842 124.157 132.56L124.289 132.254C124.551 131.569 124.682 130.842 124.675 130.109V130.043C123.566 129.678 122.445 129.287 121.312 128.868C111.346 125.221 103.015 120.537 98.2724 116.334C97.8979 116.305 97.5185 116.283 97.1342 116.269H96.609C96.1201 116.232 95.6313 116.225 95.1498 116.218" fill="#41B29C"/>
<path d="M92.1807 130.663C93.5012 131.819 94.9957 132.76 96.6091 133.45" stroke="#008972" stroke-width="0.23711" stroke-linecap="round" stroke-linejoin="round"/>
<path d="M88.2555 122.624C88.2555 122.624 88.0148 126.943 92.1806 130.649" stroke="#008972" stroke-width="0.23711" stroke-linecap="round" stroke-linejoin="round"/>
<path d="M115.52 124.98C117.292 121.179 125.872 103.947 141.193 92.9155C148.861 87.4 153.37 87.079 155.15 89.1874C156.93 91.2959 156.193 95.7535 149.911 102.794C137.348 116.955 119.459 123.63 115.52 124.98Z" fill="#BAD7FF"/>
<path d="M115.643 125.118L155.273 89.3259L155.025 89.0559L115.402 124.849L115.643 125.118Z" fill="#4794FF"/>
<path d="M150.597 123.579C145.84 119.406 137.567 114.824 127.681 111.176C117.795 107.529 108.53 105.69 102.234 105.792L96.1272 103.545L94.2084 108.878C92.4502 113.766 104.583 122.74 121.312 128.883C138.041 135.026 153.026 136.069 154.784 131.181L156.703 125.848L150.597 123.579Z" fill="#4794FF"/>
<path d="M156.704 125.833C154.946 130.729 139.924 129.693 123.231 123.535C106.539 117.378 94.3696 108.419 96.1279 103.531C97.8862 98.6424 112.871 99.6711 129.6 105.829C146.329 111.986 158.462 120.945 156.704 125.833Z" fill="#4794FF"/>
<path d="M156.572 125.768C154.792 130.707 139.865 129.751 123.231 123.623C106.597 117.494 94.5591 108.535 96.2954 103.596C97.8275 99.3355 109.107 99.4596 122.83 103.479" stroke="#0044A5" stroke-width="0.273588" stroke-linecap="round" stroke-linejoin="round"/>
<path d="M120.166 110.491C119.975 110.487 119.789 110.551 119.641 110.673C119.493 110.794 119.393 110.964 119.36 111.153C119.327 111.341 119.362 111.535 119.459 111.7C119.556 111.865 119.708 111.99 119.889 112.052L133.226 117.013C133.312 117.047 133.403 117.064 133.496 117.064C133.687 117.068 133.873 117.003 134.021 116.882C134.169 116.761 134.269 116.59 134.302 116.402C134.336 116.214 134.301 116.02 134.204 115.855C134.107 115.69 133.954 115.565 133.773 115.503L120.473 110.542C120.385 110.507 120.291 110.489 120.196 110.491" fill="#2B7CEE"/>
<path d="M133.51 116.327C133.888 115.282 133.839 114.13 133.374 113.121C132.908 112.111 132.063 111.326 131.023 110.936L125.266 108.82C124.752 108.631 124.205 108.547 123.658 108.571C123.111 108.596 122.574 108.728 122.079 108.962C121.583 109.195 121.139 109.525 120.772 109.931C120.405 110.338 120.122 110.813 119.94 111.33" stroke="#0044A5" stroke-width="0.729568" stroke-linecap="round" stroke-linejoin="round"/>
<path d="M73.7225 63.9223C75.4223 62.8571 79.3255 60.362 81.1786 59.1728C81.4863 58.9761 81.8416 58.8668 82.2065 58.8565C82.5715 58.8462 82.9324 58.9354 83.2506 59.1144L88.3576 61.9524C88.6998 62.143 89.0904 62.2293 89.4811 62.2005L92.8225 61.9743C93.3512 61.934 93.8747 62.1015 94.2817 62.4412L98.0244 65.6076C98.0917 65.6651 98.1732 65.7036 98.2605 65.719C98.3477 65.7344 98.4375 65.7261 98.5205 65.6951L100.541 64.8999C100.865 64.7736 101.215 64.7328 101.559 64.7814C101.903 64.8299 102.228 64.9662 102.504 65.1771L111.711 72.2539L100.082 74.4426L81.2151 73.8371L74.9481 69.788L72.6719 66.235L72.7667 65.4179C72.8058 65.1135 72.9117 64.8216 73.077 64.563C73.2422 64.3044 73.4627 64.0856 73.7225 63.9223Z" fill="#FBAC00"/>
<path d="M81.376 69.4086L89.5544 65.5346C89.9856 65.3293 90.4624 65.2382 90.9389 65.2702C91.4154 65.3021 91.8758 65.456 92.2757 65.717L100.44 71.0064" stroke="#AB364A" stroke-width="0.23711" stroke-linecap="round" stroke-linejoin="round"/>
<path d="M128.382 62.6748C122.757 58.6622 110.493 54.3066 96.2811 54.3066C82.0691 54.3066 69.754 58.6476 64.1582 62.6748" stroke="#001570" stroke-width="0.23711" stroke-linecap="round" stroke-linejoin="round"/>
<path d="M113.031 44.2021L106.83 35.0096C106.592 34.6458 106.254 34.3583 105.857 34.1811C105.46 34.0039 105.02 33.9445 104.59 34.01L94.5586 35.5567L113.031 44.2021Z" fill="#FBAC00"/>
<path d="M116.818 54.1098L108.727 56.5903C108.064 56.7862 107.363 56.8222 106.684 56.6954C106.004 56.5685 105.364 56.2825 104.816 55.8607L99.162 51.6073C98.8408 51.3612 98.4612 51.2029 98.0604 51.1477L91.2316 50.192C90.8604 50.1519 90.5021 50.0325 90.181 49.8418L84.1475 46.1283L83.8411 45.9313C83.5085 45.721 83.2206 45.4471 82.994 45.1254C82.7674 44.8036 82.6065 44.4403 82.5206 44.0563L81.4262 39.2412C81.2563 38.5061 81.3386 37.7352 81.6597 37.0525C81.9213 36.4971 82.3398 36.0304 82.8635 35.71L90.1591 31.2378C90.8391 30.8164 91.6363 30.6244 92.4335 30.6901C93.2307 30.7558 93.9858 31.0756 94.5876 31.6026L98.4981 34.9732L110.434 40.3209L113.783 40.0072C113.982 39.9908 114.183 40.034 114.358 40.1314C114.533 40.2288 114.676 40.376 114.767 40.5544C115.936 42.8161 116.468 45.353 116.307 47.8938C116.273 48.2286 116.31 48.5667 116.416 48.886L117.62 52.5339C117.672 52.69 117.693 52.8549 117.681 53.0191C117.668 53.1832 117.624 53.3433 117.549 53.49C117.474 53.6366 117.371 53.767 117.246 53.8734C117.12 53.9798 116.975 54.0602 116.818 54.1098Z" fill="#FBAC00"/>
<path d="M94.5518 35.5569L98.258 34.9878" stroke="#AB364A" stroke-width="0.23711" stroke-linecap="round" stroke-linejoin="round"/>
<path d="M113.032 44.2021L110.544 40.5105" stroke="#AB364A" stroke-width="0.23711" stroke-linecap="round" stroke-linejoin="round"/>
<path d="M89.5244 40.1384L98.2573 47.2152" stroke="#AB364A" stroke-width="0.23711" stroke-linecap="round" stroke-linejoin="round"/>
<path d="M94.9453 47.4561L107.085 46.6462" stroke="#AB364A" stroke-width="0.23711" stroke-linecap="round" stroke-linejoin="round"/>
<path d="M140.237 102.67L150.699 101.926" stroke="#4794FF" stroke-width="0.182392" stroke-miterlimit="10"/>
<path d="M111.478 18.6309V32.821" stroke="#005DE0" stroke-width="0.23711" stroke-linecap="round" stroke-linejoin="round"/>
<path d="M100.738 14.8372V29.91" stroke="#005DE0" stroke-width="0.23711" stroke-linecap="round" stroke-linejoin="round"/>
<path d="M100.738 10V11.9479" stroke="#005DE0" stroke-width="0.23711" stroke-linecap="round" stroke-linejoin="round"/>
<path d="M95.2305 19.2437V25.766" stroke="#005DE0" stroke-width="0.23711" stroke-linecap="round" stroke-linejoin="round"/>
<path d="M105.991 25.2626V20.2432" stroke="#005DE0" stroke-width="0.23711" stroke-linecap="round" stroke-linejoin="round"/>
</svg>
