<svg width="24" height="24" viewBox="0 0 24 24" fill="none" xmlns="http://www.w3.org/2000/svg">
<path fill-rule="evenodd" clip-rule="evenodd" d="M12 23C18.0751 23 23 18.0751 23 12C23 5.92487 18.0751 1 12 1C5.92487 1 1 5.92487 1 12C1 18.0751 5.92487 23 12 23ZM12.75 6.5C12.75 6.08579 12.4142 5.75 12 5.75C11.5858 5.75 11.25 6.08579 11.25 6.5V12C11.25 12.2278 11.3536 12.4433 11.5315 12.5857L16.5315 16.5857C16.8549 16.8444 17.3269 16.792 17.5857 16.4685C17.8444 16.1451 17.792 15.6731 17.4685 15.4143L12.75 11.6395V6.5Z" fill="#FFB30F"/>
</svg>
