<svg width="24" height="24" viewBox="0 0 24 24" fill="none" xmlns="http://www.w3.org/2000/svg">
<path fill-rule="evenodd" clip-rule="evenodd" d="M20 3.99706V17L20 17V15.75H15.5C13.9812 15.75 12.75 16.9812 12.75 18.5V23L7.00001 23C5.34315 23 4 21.6569 4 20V19.5018C4.76959 19.8227 5.6141 20 6.5 20C10.0899 20 13 17.0898 13 13.5C13 9.91012 10.0899 6.99997 6.5 6.99997C5.6141 6.99997 4.76959 7.1772 4 7.49813V5.74997H20V4.24997H4V3.99997C4 2.34312 5.34315 0.999969 7 0.999969H17C18.6569 0.999969 20 2.3402 20 3.99706ZM15.5 17.25H19.75L14.25 22.75V18.5C14.25 17.8096 14.8096 17.25 15.5 17.25Z" fill="#007864"/>
<path fill-rule="evenodd" clip-rule="evenodd" d="M6.5 19C9.53757 19 12 16.5376 12 13.5C12 10.4624 9.53757 8 6.5 8C3.46243 8 1 10.4624 1 13.5C1 16.5376 3.46243 19 6.5 19ZM9.07617 12.9801C9.34134 12.6619 9.29835 12.189 8.98014 11.9238C8.66193 11.6587 8.18901 11.7017 7.92383 12.0199L6.03097 14.2913L5.1 13.05C4.85147 12.7186 4.38137 12.6515 4.05 12.9C3.71863 13.1485 3.65147 13.6186 3.9 13.95L5.4 15.95C5.53759 16.1335 5.75155 16.2439 5.98079 16.2498C6.21003 16.2556 6.42936 16.1563 6.57617 15.9801L9.07617 12.9801Z" fill="#007864"/>
</svg>
