<svg width="24" height="24" viewBox="0 0 24 24" fill="none" xmlns="http://www.w3.org/2000/svg">
<path d="M4 4C6.4 2.49075 12.96 0.377807 20 4H4Z" fill="#007864"/>
<path d="M20 20C17.6 21.5092 11.04 23.6222 4 20L20 20Z" fill="#007864"/>
<path d="M12.8288 13.4848C12.8288 13.2548 12.7666 13.0726 12.6424 12.938C12.5208 12.8006 12.3127 12.6744 12.0182 12.5594C11.7237 12.4444 11.4698 12.3309 11.2563 12.2187C11.0429 12.1038 10.8592 11.9734 10.7052 11.8275C10.5539 11.6789 10.435 11.5051 10.3485 11.306C10.2648 11.1069 10.2229 10.87 10.2229 10.5952C10.2229 10.1213 10.3688 9.73291 10.6606 9.43007C10.9524 9.12723 11.3401 8.95058 11.8237 8.90011V8H12.4721V8.91272C12.9504 8.98283 13.3246 9.19033 13.5947 9.53523C13.8649 9.87732 14 10.3218 14 10.8686H12.8288C12.8288 10.5321 12.7612 10.2811 12.6261 10.1157C12.4938 9.94742 12.3154 9.8633 12.0912 9.8633C11.8696 9.8633 11.6981 9.9292 11.5765 10.061C11.4549 10.19 11.3941 10.3694 11.3941 10.5994C11.3941 10.8125 11.4536 10.9835 11.5724 11.1125C11.6913 11.2415 11.9115 11.3733 12.233 11.5079C12.5572 11.6425 12.8234 11.7701 13.0314 11.8906C13.2394 12.0084 13.4151 12.143 13.5583 12.2944C13.7015 12.443 13.8109 12.6141 13.8865 12.8076C13.9622 12.9982 14 13.2212 14 13.4763C14 13.953 13.8568 14.34 13.5704 14.6372C13.284 14.9345 12.8896 15.1097 12.387 15.163V16H11.7427V15.1672C11.1888 15.1055 10.7592 14.9022 10.4539 14.5573C10.1513 14.2096 10 13.7483 10 13.1735H11.1712C11.1712 13.5072 11.2469 13.7638 11.3982 13.9432C11.5522 14.1199 11.7724 14.2082 12.0588 14.2082C12.2965 14.2082 12.4843 14.1437 12.6221 14.0147C12.7599 13.8829 12.8288 13.7063 12.8288 13.4848Z" fill="#007864"/>
<rect x="1.75" y="5.75" width="20.5" height="12.5" rx="2.25" stroke="#007864" stroke-width="1.5"/>
<circle cx="6" cy="12" r="1" fill="#007864"/>
<circle cx="18" cy="12" r="1" fill="#007864"/>
</svg>
