<svg width="24" height="24" viewBox="0 0 24 24" fill="none" xmlns="http://www.w3.org/2000/svg">
<path d="M5 5L19 5" stroke="#677072" stroke-width="1.5"/>
<path fill-rule="evenodd" clip-rule="evenodd" d="M18.5 3.99682L18.5 16.3787L13.3787 21.5L6.99997 21.5C6.17154 21.5 5.49997 20.8285 5.49997 20L5.49997 19.9236C4.97676 19.8428 4.47414 19.6996 3.99997 19.5018L3.99997 20C3.99997 21.6569 5.34312 23 6.99998 23L14 23L20 17L20 3.99682C20 2.33996 18.6569 1 17 1H6.99998C5.34313 1 3.99999 2.34314 3.99998 4L3.99998 7.49816C4.47415 7.30042 4.97677 7.15724 5.49998 7.07645L5.49998 4C5.49998 3.17157 6.17156 2.5 6.99998 2.5H17C17.8305 2.5 18.5 3.17046 18.5 3.99682Z" fill="#677072"/>
<path d="M13 23V18C13 16.8954 13.8954 16 15 16H20" stroke="#677072" stroke-width="1.5"/>
<circle cx="6.5" cy="13.5" r="4.68182" stroke="#677072" stroke-width="1.63636"/>
<path d="M7 11.5L5 13.5L7 15.5" stroke="#677072" stroke-width="1.63636" stroke-linecap="round" stroke-linejoin="round"/>
</svg>
