<svg width="20" height="20" viewBox="0 0 20 20" fill="none" xmlns="http://www.w3.org/2000/svg">
<path fill-rule="evenodd" clip-rule="evenodd" d="M5.41699 1.1665C5.69313 1.1665 5.91699 1.39036 5.91699 1.6665V4.58317C5.91699 4.85931 5.69313 5.08317 5.41699 5.08317C5.14085 5.08317 4.91699 4.85931 4.91699 4.58317V1.6665C4.91699 1.39036 5.14085 1.1665 5.41699 1.1665ZM13.3337 2.49984H6.66699V4.58317C6.66699 5.27353 6.10735 5.83317 5.41699 5.83317C4.72664 5.83317 4.16699 5.27353 4.16699 4.58317V2.54132C2.74814 2.77936 1.66699 4.01334 1.66699 5.49984V6.99984H18.3337V5.49984C18.3337 4.01334 17.2525 2.77936 15.8337 2.54132V4.58317C15.8337 5.27353 15.274 5.83317 14.5837 5.83317C13.8933 5.83317 13.3337 5.27353 13.3337 4.58317V2.49984ZM1.66699 15.3332V7.99984H18.3337V15.3332C18.3337 16.99 16.9905 18.3332 15.3337 18.3332H4.66699C3.01014 18.3332 1.66699 16.99 1.66699 15.3332ZM12.1471 9.007C11.8289 8.74183 11.356 8.78482 11.0908 9.10303C10.8257 9.42124 10.8686 9.89416 11.1869 10.1593L12.0955 10.9165H5.83366C5.41945 10.9165 5.08366 11.2523 5.08366 11.6665C5.08366 12.0807 5.41945 12.4165 5.83366 12.4165H14.167C14.4828 12.4165 14.7647 12.2187 14.8722 11.9218C14.9797 11.6249 14.8897 11.2925 14.6471 11.0903L12.1471 9.007ZM5.83366 12.9998C5.51789 12.9998 5.23595 13.1976 5.12846 13.4945C5.02096 13.7914 5.11094 14.1239 5.35352 14.326L7.85352 16.4093C8.17173 16.6745 8.64465 16.6315 8.90983 16.3133C9.175 15.9951 9.13201 15.5222 8.8138 15.257L7.9052 14.4998H14.167C14.5812 14.4998 14.917 14.1641 14.917 13.7498C14.917 13.3356 14.5812 12.9998 14.167 12.9998H5.83366ZM15.0837 1.6665C15.0837 1.39036 14.8598 1.1665 14.5837 1.1665C14.3075 1.1665 14.0837 1.39036 14.0837 1.6665V4.58317C14.0837 4.85931 14.3075 5.08317 14.5837 5.08317C14.8598 5.08317 15.0837 4.85931 15.0837 4.58317V1.6665Z" fill="#004EBC"/>
</svg>
