<svg width="24" height="24" viewBox="0 0 24 24" fill="none" xmlns="http://www.w3.org/2000/svg">
<path fill-rule="evenodd" clip-rule="evenodd" d="M20.2635 14C19.3641 17.7294 16.0057 20.5 12.0002 20.5C7.99461 20.5 4.63619 17.7294 3.73678 14H2.20019C3.12673 18.5645 7.16224 22 12.0002 22C16.8381 22 20.8736 18.5645 21.8001 14H20.2635ZM3.73678 10C4.63619 6.27063 7.99461 3.5 12.0002 3.5C16.0057 3.5 19.3641 6.27063 20.2635 10H21.8001C20.8736 5.43552 16.8381 2 12.0002 2C7.16224 2 3.12673 5.43552 2.20019 10H3.73678Z" fill="#00AAE3"/>
<path d="M18.5 9L21 10.5L22.5 8" stroke="#00AAE3" stroke-width="1.5" stroke-linecap="round" stroke-linejoin="round"/>
<path d="M5.5 15L3 13.5L1.5 16" stroke="#00AAE3" stroke-width="1.5" stroke-linecap="round" stroke-linejoin="round"/>
<path d="M12 11.5V17" stroke="#00AAE3" stroke-width="2" stroke-linecap="round" stroke-linejoin="round"/>
<circle cx="12" cy="8" r="1.5" fill="#00AAE3"/>
</svg>
