<svg width="24" height="24" viewBox="0 0 24 24" fill="none" xmlns="http://www.w3.org/2000/svg">
<path fill-rule="evenodd" clip-rule="evenodd" d="M2.5 17V7.00003C2.5 6.1716 3.17157 5.50003 4 5.50003H10.8421L20 5.5C20.8284 5.5 21.5 6.17157 21.5 7V12.3761C22.0902 12.8376 22.5987 13.3987 23 14.0343V7C23 5.34314 21.6568 4 20 4L10.8421 4.00003H4C2.34315 4.00003 1 5.34318 1 7.00003V17C1 18.6568 2.34315 20 4 20H11.4982C11.3004 19.5258 11.1572 19.0232 11.0764 18.5H4C3.17157 18.5 2.5 17.8284 2.5 17Z" fill="#677072"/>
<path d="M22 8.5H2.5" stroke="#677072" stroke-width="1.5"/>
<path d="M4 11H6M8 11H10" stroke="#677072" stroke-width="1.5" stroke-linecap="round"/>
<circle cx="17.5" cy="17.5" r="4.75" stroke="#677072" stroke-width="1.5"/>
<path d="M17.5 18V20" stroke="#677072" stroke-width="1.5" stroke-linecap="round" stroke-linejoin="round"/>
<path d="M18.5 15.5C18.5 16.0523 18.0523 16.5 17.5 16.5C16.9477 16.5 16.5 16.0523 16.5 15.5C16.5 14.9477 16.9477 14.5 17.5 14.5C18.0523 14.5 18.5 14.9477 18.5 15.5Z" fill="#677072"/>
</svg>
