<svg width="24" height="24" viewBox="0 0 24 24" fill="none" xmlns="http://www.w3.org/2000/svg">
<path d="M3.73975 16.9387L3.77426 16.915L3.80591 16.8876C4.60248 16.1978 5.23164 14.9921 5.6636 13.5854C6.1033 12.1534 6.36852 10.4162 6.36852 8.5627C6.36852 6.21361 7.91702 4.25775 10.2091 3.48582C11.0828 3.19161 12.7477 3.14809 13.9874 3.49632C16.2275 4.1441 17.7942 6.19146 17.7942 8.5627C17.7942 10.4063 18.0249 12.1419 18.4488 13.5776C18.8647 14.9863 19.4974 16.2104 20.3809 16.9076C20.9356 17.3537 21.2496 18.1023 21.2496 18.9066C21.2496 19.6689 20.6187 20.25 19.824 20.25H4.21077C3.34685 20.25 2.78516 19.6023 2.78516 18.9066C2.78516 18.1114 3.09041 17.385 3.73975 16.9387Z" stroke="#677072" stroke-width="1.5"/>
<path d="M9 23C10.1046 23 11 22.1046 11 21H7C7 22.1046 7.89543 23 9 23Z" fill="#677072"/>
<path d="M12 1C10.8954 1 10 1.89543 10 3H14C14 1.89543 13.1046 1 12 1Z" fill="#677072"/>
</svg>
