<svg width="16" height="16" viewBox="0 0 16 16" fill="none" xmlns="http://www.w3.org/2000/svg">
<path fill-rule="evenodd" clip-rule="evenodd" d="M12.9931 9.33301C12.4052 11.5403 10.3925 13.1663 8.00011 13.1663C5.60768 13.1663 3.59504 11.5403 3.00712 9.33301H1.4668C2.08449 12.376 4.77483 14.6663 8.00011 14.6663C11.2254 14.6663 13.9157 12.376 14.5334 9.33301H12.9931ZM3.00712 6.66634C3.59504 4.45909 5.60768 2.83301 8.00011 2.83301C10.3925 2.83301 12.4052 4.45909 12.9931 6.66634H14.5334C13.9157 3.62335 11.2254 1.33301 8.00011 1.33301C4.77483 1.33301 2.08449 3.62335 1.4668 6.66634H3.00712Z" fill="#007864"/>
<path d="M12 5.33366L14 6.66699L15 4.66699" stroke="#007864" stroke-width="1.5" stroke-linecap="round" stroke-linejoin="round"/>
<path d="M4 10.6663L2 9.33301L1 11.333" stroke="#007864" stroke-width="1.5" stroke-linecap="round" stroke-linejoin="round"/>
</svg>
