<svg width="200" height="150" viewBox="0 0 200 150" fill="none" xmlns="http://www.w3.org/2000/svg">
<path d="M48.5525 77.8064C48.5525 78.7579 48.1745 79.6705 47.5016 80.3433C46.8288 81.0161 45.9162 81.3941 44.9647 81.3941C44.0132 81.3941 43.1006 81.0161 42.4278 80.3433C41.7549 79.6705 41.377 78.7579 41.377 77.8064C41.377 72.0749 44.9647 66.1201 44.9647 66.1201C44.9647 66.1201 48.5525 71.5613 48.5525 77.8064Z" fill="#E8F2FF"/>
<path d="M156.781 95.6185C156.357 96.4819 155.828 97.4347 155.21 98.4693C148.199 110.081 129.233 131.221 105.942 138.716C103.624 139.469 101.263 140.078 98.8706 140.54C95.5438 141.18 92.1803 141.613 88.7996 141.835H88.5391C87.8692 141.88 87.2141 141.909 86.5591 141.932C85.7602 141.962 84.9712 141.976 84.1921 141.976H83.4998C64.4966 141.716 52.3787 133.26 47.5776 125.698C45.8609 123.016 44.9538 119.897 44.9649 116.713V109.597C46.5355 105.131 49.431 100.509 53.391 95.9385C53.8301 95.4249 54.2916 94.9039 54.768 94.3829L55.036 94.0777C55.4751 93.5939 55.9292 93.1175 56.3981 92.6336C63.0973 85.6814 87.9213 65.3384 125.704 66.1423C168.437 67.043 161.396 86.3439 156.781 95.6185Z" fill="#E8F2FF"/>
<path d="M69.6914 136.29L115.841 97.5843C116.179 97.345 116.564 97.179 116.97 97.097C117.377 97.0149 117.796 97.0187 118.201 97.1079C118.945 97.3014 119.109 97.8522 118.558 98.2839L72.4083 136.99L69.6914 136.29Z" fill="#BAD7FF"/>
<path d="M111.124 122.936L72.4326 114.63C70.3856 114.19 67.5869 115.173 67.3561 116.401L66.7383 136.275C66.4778 137.667 69.1574 138.508 71.5617 137.712L110.93 126.174C113.625 125.289 113.692 123.495 111.124 122.936Z" fill="#BAD7FF"/>
<path d="M70.8984 132.658L76.4066 134.072L83.1579 126.443L81.0886 125.914L70.8984 132.658Z" fill="#BAD7FF"/>
<path d="M87.2357 124.559C88.2108 123.763 87.913 122.832 86.5732 122.49C85.8555 122.332 85.1127 122.323 84.3916 122.466C83.6705 122.608 82.9865 122.897 82.3825 123.316C81.4074 124.12 81.7052 125.043 83.045 125.393C83.7632 125.551 84.5065 125.559 85.2278 125.416C85.9492 125.272 86.6329 124.981 87.2357 124.559Z" fill="#BAD7FF"/>
<path d="M100.56 93.5498C100.56 93.5498 109.737 92.1802 110.05 98.5444C110.415 105.876 94.575 111.943 94.575 111.943L90.5332 101.068V95.2767C90.5332 95.2767 97.6343 93.9368 100.56 93.5498Z" fill="#FFD1C8"/>
<path d="M81.9512 84.6551L78.9738 66.2846L78.3262 62.2949L66.7441 62.7936L67.4885 82.824L74.932 86.5904C74.932 86.5904 78.1922 86.5904 80.4178 86.5904H80.4699C80.6991 86.5725 80.9219 86.5064 81.1239 86.3966C81.3259 86.2868 81.5025 86.1357 81.6422 85.9532C81.7819 85.7706 81.8817 85.5607 81.9349 85.3371C81.9881 85.1134 81.9937 84.8811 81.9512 84.6551Z" fill="#FFD1C8"/>
<path d="M53.6213 68.3386L53.398 65.6515C53.3284 64.8281 53.3484 63.9995 53.4575 63.1803C53.6154 62.0917 53.9551 61.0375 54.4624 60.0615C55.5715 57.955 57.7375 55.7145 61.9505 55.7145C68.9623 55.7145 73.6591 55.8187 77.1204 53.4814C77.4712 53.8254 77.717 54.2621 77.8291 54.7406C77.9411 55.219 77.9147 55.7194 77.7531 56.1834C78.4974 56.0607 79.2017 55.7621 79.8075 55.3125C79.9042 55.2368 80.0193 55.188 80.1409 55.1708C80.2626 55.1537 80.3867 55.1689 80.5006 55.2149C80.6145 55.261 80.7143 55.3362 80.7899 55.433C80.8656 55.5299 80.9144 55.6449 80.9314 55.7666C81.1294 57.2447 81.0179 58.7479 80.6039 60.1806C79.9266 62.5774 78.3709 64.9444 72.6319 65.3017L72.5873 68.949C69.3443 70.7187 65.7322 71.7052 62.0399 71.8296C56.4647 71.8296 54.3731 71.6138 53.6213 68.3386Z" fill="#004EBC"/>
<path d="M155.21 98.4623C148.198 110.082 129.232 131.214 105.941 138.717C107.505 135.367 111.986 126.204 116.124 121.842C121.23 116.461 121.111 124.589 120.456 126.971C120.702 126.442 127.408 108.042 135.581 100.829C143.881 93.4975 145.116 100.881 143.553 108.37C143.553 108.37 145.958 103.204 149.59 99.8542C153.52 96.2441 154.979 96.8619 155.21 98.4623Z" fill="#BAD7FF"/>
<path d="M153.789 79.4889C153.786 79.9776 153.664 80.4582 153.431 80.8883C151.198 85.2129 138.634 88.5253 123.486 88.5253C108.339 88.5253 95.8263 85.2129 93.5932 80.8883C93.3599 80.4583 93.2348 79.978 93.2285 79.4889C93.2285 74.5092 106.798 70.46 123.523 70.46C140.249 70.46 153.789 74.5092 153.789 79.4889Z" fill="#4794FF"/>
<path d="M153.789 79.4889C153.786 79.9776 153.664 80.4582 153.431 80.8883C151.198 76.5636 138.634 73.2513 123.486 73.2513C108.339 73.2513 95.8263 76.5636 93.5932 80.8883C93.3599 80.4583 93.2348 79.978 93.2285 79.4889C93.2285 74.5092 106.798 70.46 123.523 70.46C140.249 70.46 153.789 74.5092 153.789 79.4889Z" fill="#BAD7FF"/>
<path d="M99.5488 109.665C104.275 107.35 107.446 105.534 109.516 103.807C110.987 102.634 112.023 101.001 112.456 99.1695C112.889 97.338 112.695 95.4141 111.905 93.7061C110.922 91.3688 109.076 88.4957 105.585 85.0047C94.6807 74.2116 84.3939 66.2471 76.9578 66.2843C72.0823 66.2843 71.1891 67.8177 64.9887 69.2617C60.4482 69.9614 53.5555 68.3759 53.5555 68.3759C51.8733 69.8646 53.3545 72.2316 53.3545 72.2316C53.0827 72.6212 52.8976 73.0646 52.8118 73.5319C52.726 73.9992 52.7414 74.4794 52.8572 74.9402C52.9729 75.4009 53.1862 75.8315 53.4826 76.2027C53.779 76.574 54.1516 76.8773 54.5753 77.0922C53.5406 80.3971 56.8902 81.0671 56.8902 81.0671C56.4585 83.7839 59.4731 86.9474 68.7477 85.7713C75.2979 84.9526 81.3346 80.412 81.3346 80.412C87.5259 83.7613 92.8719 88.4785 96.9659 94.2048" fill="#FFD1C8"/>
<path d="M59.1152 97.5093L63.2761 83.4561L76.1831 84.6396V99.1097C76.1831 99.1097 67.3477 103.955 59.1152 97.5093Z" fill="#FFD1C8"/>
<path d="M99.3996 111.019L88.8001 116.163V141.858C88.1451 141.902 87.5049 141.932 86.8648 141.954C85.9641 141.954 85.0709 142.007 84.1926 141.999H83.5003C64.4971 141.739 52.3791 133.283 47.5781 125.72C45.8573 123.033 44.95 119.905 44.9654 116.714V106.68C44.9389 103.78 45.8042 100.943 47.4441 98.5515C49.2157 96.0058 51.8655 94.8298 54.7834 94.3832C55.5234 94.2762 56.269 94.2116 57.0164 94.1896L95.3652 93.0806C95.3652 93.0806 100.732 99.2661 99.3996 111.019Z" fill="#FFAA8D"/>
<path d="M72.7507 66.9319C74.2156 66.5898 75.7128 66.4052 77.2168 66.381C77.8048 66.3771 78.3922 66.4194 78.9735 66.5076C79.0069 66.5121 79.0407 66.5039 79.0683 66.4846C79.0959 66.4653 79.1152 66.4363 79.1224 66.4034C79.1255 66.3862 79.1251 66.3685 79.1211 66.3515C79.1171 66.3345 79.1097 66.3185 79.0992 66.3045C79.0887 66.2905 79.0754 66.2788 79.0602 66.2702C79.0449 66.2616 79.0281 66.2563 79.0107 66.2545C78.4175 66.1601 77.8175 66.1153 77.2168 66.1205C75.6953 66.1462 74.1807 66.3333 72.6986 66.6788C72.6818 66.6823 72.6658 66.6891 72.6517 66.699C72.6376 66.7088 72.6257 66.7215 72.6166 66.7361C72.6075 66.7507 72.6016 66.7671 72.599 66.7841C72.5965 66.8011 72.5975 66.8185 72.6019 66.8351C72.609 66.8675 72.6286 66.8959 72.6565 66.914C72.6843 66.9321 72.7182 66.9385 72.7507 66.9319Z" fill="#AB364A"/>
<path d="M97.033 94.2345L100.963 93.5497C100.98 93.547 100.996 93.541 101.01 93.532C101.025 93.523 101.037 93.5112 101.047 93.4973C101.057 93.4834 101.063 93.4677 101.067 93.4512C101.07 93.4346 101.071 93.4175 101.067 93.4008C101.06 93.3679 101.041 93.3389 101.013 93.3196C100.986 93.3003 100.952 93.2921 100.919 93.2966L96.9884 93.974C96.9549 93.9828 96.9258 94.0035 96.9066 94.0323C96.8874 94.0611 96.8794 94.096 96.8842 94.1303C96.8913 94.1632 96.9106 94.1922 96.9382 94.2115C96.9658 94.2308 96.9997 94.239 97.033 94.2345Z" fill="#AB364A"/>
<path d="M116.117 29.8779V97.1819C116.103 97.3687 116.128 97.5564 116.19 97.7332C116.252 97.91 116.35 98.0721 116.477 98.2094C116.605 98.3467 116.759 98.4562 116.931 98.5311C117.103 98.606 117.288 98.6447 117.475 98.6447C117.663 98.6447 117.848 98.606 118.02 98.5311C118.192 98.4562 118.346 98.3467 118.474 98.2094C118.601 98.0721 118.699 97.91 118.761 97.7332C118.823 97.5564 118.848 97.3687 118.834 97.1819V29.8779H116.117Z" fill="#004EBC"/>
<path d="M135.962 63.858L98.8042 61.8557C98.3578 61.8412 97.9225 61.7133 97.5394 61.4838C97.1562 61.2544 96.8379 60.9311 96.6144 60.5445C96.3909 60.1579 96.2697 59.7206 96.2621 59.2741C96.2545 58.8276 96.3609 58.3865 96.5711 57.9925L113.862 28.963C114.957 27.1319 117.748 26.9756 118.864 28.7173L138.828 59.7492C140.086 61.6994 138.493 63.9845 135.992 63.8506" fill="#FF4824"/>
<path opacity="0.75" d="M116.445 88.2797C116.445 88.2797 126.538 79.2358 123.494 68.0111C120.45 56.7863 105.123 53.9727 97.7544 54.0918C90.3853 54.2109 87.2293 50.6157 84.8846 48.1221C82.5399 45.6285 80.7088 43.656 75.3718 42.8596C70.0348 42.0631 63.3729 46.9609 52.3863 45.2191C40.9308 43.4029 37.8567 34.9322 41.3774 28.6276L70.7941 0C70.7941 0 77.9621 16.0705 91.8517 15.9514C105.741 15.8323 106.88 13.8523 116.825 15.8397C126.769 17.8271 134.019 31.0468 135.537 38.4158C137.056 45.7848 143.844 52.804 146.539 55.9601C149.233 59.1161 150.38 62.1084 148.526 67.8696C146.673 73.6309 128.176 88.503 128.176 88.503C128.176 88.503 120.598 88.6667 116.445 88.2797Z" fill="url(#paint0_linear_1350_4552)"/>
<path d="M116.117 29.8779V97.1819C116.103 97.3687 116.128 97.5564 116.19 97.7332C116.252 97.91 116.35 98.0721 116.477 98.2094C116.605 98.3467 116.759 98.4562 116.931 98.5311C117.103 98.606 117.288 98.6447 117.475 98.6447C117.663 98.6447 117.848 98.606 118.02 98.5311C118.192 98.4562 118.346 98.3467 118.474 98.2094C118.601 98.0721 118.699 97.91 118.761 97.7332C118.823 97.5564 118.848 97.3687 118.834 97.1819V29.8779H116.117Z" fill="#004EBC"/>
<path d="M116.117 62.7861H116.08V63.9771H116.117V62.7861Z" fill="#2957B5"/>
<path d="M116.035 61.29L116.08 62.7862L116.117 62.7936V61.3049L116.035 61.29Z" fill="#662A1F"/>
<path d="M116.117 61.3047V62.7934V63.9769L118.834 64.2076L118.782 61.6992L116.117 61.3047Z" fill="#002E9F"/>
<path d="M135.962 63.858L98.8042 61.8557C98.3578 61.8412 97.9225 61.7133 97.5394 61.4838C97.1562 61.2544 96.8379 60.9311 96.6144 60.5445C96.3909 60.1579 96.2697 59.7206 96.2621 59.2741C96.2545 58.8276 96.3609 58.3865 96.5711 57.9925L113.862 28.963C114.957 27.1319 117.748 26.9756 118.864 28.7173L138.828 59.7492C140.056 61.7068 138.463 64.0143 135.962 63.858Z" fill="#FF4824"/>
<path d="M114.316 38.6982H119.825L117.904 50.444H115.835L114.316 38.6982Z" fill="#FFD110"/>
<path d="M119.273 54.1218C119.28 54.6033 119.144 55.076 118.882 55.4799C118.62 55.8839 118.244 56.2007 117.801 56.39C117.358 56.5794 116.869 56.6328 116.396 56.5434C115.923 56.4541 115.487 56.2259 115.144 55.8881C114.801 55.5503 114.566 55.118 114.469 54.6463C114.373 54.1746 114.418 53.6848 114.601 53.2392C114.784 52.7937 115.094 52.4125 115.494 52.1441C115.894 51.8758 116.365 51.7325 116.846 51.7325C117.485 51.7285 118.098 51.9778 118.553 52.4257C119.008 52.8735 119.267 53.4835 119.273 54.1218Z" fill="#FFD110"/>
<path d="M76.1831 86.5977H73.6523L76.1831 89.9472V86.5977Z" fill="#FFAB9D"/>
<path d="M82.8608 118.835L88.6295 116.386C88.6897 116.362 88.7376 116.314 88.7627 116.254C88.7878 116.194 88.7881 116.127 88.7635 116.066C88.7374 116.007 88.6892 115.961 88.6293 115.938C88.5695 115.914 88.5027 115.915 88.4434 115.94L82.6747 118.396C82.6459 118.408 82.6198 118.426 82.5978 118.448C82.5758 118.471 82.5585 118.497 82.5467 118.526C82.535 118.555 82.5291 118.586 82.5293 118.618C82.5296 118.649 82.536 118.68 82.5482 118.709C82.5604 118.738 82.5782 118.764 82.6005 118.786C82.6228 118.808 82.6493 118.825 82.6783 118.837C82.7073 118.849 82.7384 118.854 82.7697 118.854C82.801 118.854 82.832 118.848 82.8608 118.835Z" fill="#AB364A"/>
<path d="M54.6037 77.174C57.6273 78.0975 60.7691 78.5764 63.9304 78.5957C64.8905 78.5956 65.8498 78.5409 66.8036 78.432C66.8329 78.4249 66.8589 78.4083 66.8775 78.3846C66.8961 78.361 66.9062 78.3318 66.9062 78.3017C66.9062 78.2716 66.8961 78.2424 66.8775 78.2188C66.8589 78.1952 66.8329 78.1785 66.8036 78.1714C65.8597 78.2804 64.9104 78.335 63.9602 78.3352C61.7684 78.3208 59.5837 78.0838 57.4397 77.6281C56.5986 77.4569 55.9138 77.2782 55.4449 77.1443C54.9759 77.0103 54.7005 76.9284 54.7005 76.9284C54.6679 76.9187 54.6329 76.9218 54.6025 76.937C54.5721 76.9522 54.5486 76.9784 54.5368 77.0103C54.531 77.0264 54.5285 77.0435 54.5295 77.0606C54.5305 77.0777 54.535 77.0944 54.5427 77.1097C54.5503 77.125 54.561 77.1386 54.574 77.1496C54.5871 77.1607 54.6023 77.169 54.6186 77.174H54.6037Z" fill="#AB364A"/>
<path d="M81.3267 78.3425V78.2011C81.3126 76.6827 81.0615 75.1759 80.5824 73.735C80.577 73.7189 80.5685 73.704 80.5573 73.6911C80.5462 73.6783 80.5326 73.6678 80.5174 73.6602C80.4867 73.6448 80.4512 73.6423 80.4186 73.6531C80.386 73.664 80.3591 73.6873 80.3437 73.718C80.3284 73.7488 80.3259 73.7843 80.3367 73.8169C80.8128 75.238 81.064 76.7248 81.0811 78.2234V78.3574C81.0881 78.3867 81.1048 78.4127 81.1284 78.4313C81.152 78.4499 81.1813 78.46 81.2113 78.46C81.2414 78.46 81.2706 78.4499 81.2942 78.4313C81.3179 78.4127 81.3346 78.3867 81.3416 78.3574L81.3267 78.3425Z" fill="#AB364A"/>
<path d="M62.5385 85.987C62.9851 86.0465 63.5136 86.1061 64.0718 86.1284H64.8757C70.8666 86.0451 76.6763 84.0617 81.4673 80.4639V80.2778H81.2886C76.5436 83.8444 70.7887 85.8122 64.8534 85.8977H64.0793C63.5359 85.8977 63.0149 85.8158 62.5906 85.7637C62.5734 85.7605 62.5557 85.7609 62.5387 85.7649C62.5217 85.7689 62.5057 85.7764 62.4917 85.7869C62.4777 85.7974 62.466 85.8107 62.4574 85.8259C62.4488 85.8411 62.4435 85.8579 62.4417 85.8753C62.4394 85.9086 62.4496 85.9415 62.4702 85.9676C62.4909 85.9938 62.5205 86.0113 62.5534 86.0168L62.5385 85.987Z" fill="#AB364A"/>
<path d="M53.3985 72.2019C53.3985 72.2019 56.8672 74.2935 63.5961 74.2935C64.5117 74.2935 65.4793 74.2935 66.5065 74.167C66.5238 74.1661 66.5408 74.1617 66.5563 74.1539C66.5718 74.1462 66.5856 74.1354 66.5968 74.1221C66.6079 74.1089 66.6163 74.0935 66.6212 74.0769C66.6262 74.0602 66.6277 74.0428 66.6256 74.0256C66.6238 74.0089 66.6186 73.9928 66.6105 73.9781C66.6024 73.9635 66.5914 73.9506 66.5782 73.9402C66.5651 73.9298 66.55 73.9221 66.5339 73.9176C66.5177 73.9131 66.5008 73.9119 66.4842 73.9139C65.4644 73.9958 64.5042 74.033 63.5961 74.033C61.0452 74.0659 58.5037 73.7172 56.0559 72.9984C55.4088 72.7954 54.777 72.5467 54.1652 72.254C53.9494 72.1573 53.793 72.0828 53.6888 72.0233L53.54 71.9414L53.3613 71.9786L53.3985 72.2019Z" fill="#AB364A"/>
<path d="M56.9054 81.134C59.3202 81.9546 61.8506 82.3843 64.4009 82.4069C65.4921 82.4088 66.5811 82.3092 67.6537 82.1091C67.6862 82.102 67.7145 82.0824 67.7326 82.0545C67.7507 82.0266 67.7571 81.9928 67.7505 81.9602C67.7489 81.943 67.7436 81.9264 67.7349 81.9114C67.7262 81.8965 67.7144 81.8836 67.7002 81.8737C67.686 81.8637 67.6699 81.857 67.6529 81.854C67.6358 81.8509 67.6184 81.8516 67.6016 81.856C66.5458 82.0503 65.4745 82.1474 64.4009 82.1463C62.6456 82.1359 60.8973 81.9236 59.1905 81.5136C58.5131 81.3573 57.9698 81.201 57.5902 81.0894L57.0096 80.8958C56.977 80.8835 56.9408 80.8844 56.9089 80.8983C56.8769 80.9122 56.8516 80.938 56.8384 80.9703C56.8324 80.9859 56.8296 81.0025 56.8301 81.0193C56.8307 81.036 56.8345 81.0524 56.8414 81.0677C56.8483 81.0829 56.8582 81.0966 56.8705 81.108C56.8827 81.1194 56.8971 81.1282 56.9128 81.134H56.9054Z" fill="#AB364A"/>
<path d="M129.405 126.331L131.608 120.763V120.756L139.945 99.6682L139.602 99.5342L131.236 120.689L129.062 126.189L129.405 126.331Z" fill="#4794FF"/>
<path d="M118.046 121.999L113.773 135.486L114.131 135.598L118.396 122.118" fill="#4794FF"/>
<path d="M130.84 108.995L131.234 120.733L131.607 120.718L131.212 108.98" fill="#4794FF"/>
<path d="M135.016 112.099L142.043 104.73L141.775 104.469L134.748 111.838" fill="#4794FF"/>
<path d="M114.004 126.993L114.577 133.008L114.949 132.97L114.369 126.956" fill="#4794FF"/>
<path d="M52.3711 94.8374V131.578H53.1154V94.8374" fill="#FC9B81"/>
<path d="M61.9141 94.0635V137.117H62.6584V94.0635" fill="#FC9B81"/>
<path d="M71.5977 93.7578V140.726H72.342V93.7578" fill="#FC9B81"/>
<path d="M81.6016 93.4678V141.955H82.3459V93.4678" fill="#FC9B81"/>
<path d="M90.6914 93.2222V115.061H91.4358V93.2222" fill="#FC9B81"/>
<defs>
<linearGradient id="paint0_linear_1350_4552" x1="91.9633" y1="17.1498" x2="98.5136" y2="91.3092" gradientUnits="userSpaceOnUse">
<stop offset="0.09" stop-color="#81E0A5" stop-opacity="0"/>
<stop offset="0.18" stop-color="#65CA87" stop-opacity="0.21"/>
<stop offset="0.34" stop-color="#3AA859" stop-opacity="0.53"/>
<stop offset="0.47" stop-color="#1F943D" stop-opacity="0.73"/>
<stop offset="0.54" stop-color="#158C32" stop-opacity="0.8"/>
<stop offset="1" stop-color="#053066"/>
</linearGradient>
</defs>
</svg>
